  0
SECTION
  2
HEADER
  9
$ANGBASE
  50
0.0
  9
$ANGDIR
  70
  1
  9
$MEASUREMENT
  70
0
  0
ENDSEC
  0
SECTION
  2
TABLES
  0
TABLE
  2
LTYPE
  70
4
  0
LTYPE
  5
40F
  2
CONTINUOUS
  70
0
  3
Solid line
  72
65
  73
0
  40
0.0
  0
LTYPE
  5
410
  2
DASHDOT
 70
0
  3
Dash Dot ____ _ ____ _
 72
65
 73
4
 40
2.0
 49
1.25
 49
-0.25
 49
0.25
 49
-0.25
  0
LTYPE
  5
411
  2
DASHED
 70
0
  3
Dashed __ __ __ __ __
 72
65
 73
2
 40
0.75
 49
0.5
 49
-0.25
  0
LTYPE
  5
43B
  2
DOTTED
 70
0
  3
Dotted .  .  .  .
 72
65
 73
2
 40
0.2
 49
0.0
 49
-0.2
  0
ENDTAB
  0
TABLE
  2
STYLE
  70
4
  0
STYLE
  2
KICAD
  70
0
  40
0
  41
1
  42
1
  50
0
  71
0
  3
isocp.shx
  0
STYLE
  2
KICADB
  70
0
  40
0
  41
1
  42
1
  50
0
  71
0
  3
isocp.shx
  0
STYLE
  2
KICADI
  70
0
  40
0
  41
1
  42
1
  50
15
  71
0
  3
isocp.shx
  0
STYLE
  2
KICADBI
  70
0
  40
0
  41
1
  42
1
  50
15
  71
0
  3
isocp.shx
  0
ENDTAB
  0
TABLE
  2
LAYER
  70
30
  0
LAYER
  2
BLACK
  70
0
  62
7
  6
CONTINUOUS
  0
LAYER
  2
GRAY1
  70
0
  62
251
  6
CONTINUOUS
  0
LAYER
  2
GRAY2
  70
0
  62
8
  6
CONTINUOUS
  0
LAYER
  2
GRAY3
  70
0
  62
9
  6
CONTINUOUS
  0
LAYER
  2
WHITE
  70
0
  62
7
  6
CONTINUOUS
  0
LAYER
  2
LYELLOW
  70
0
  62
51
  6
CONTINUOUS
  0
LAYER
  2
BLUE1
  70
0
  62
178
  6
CONTINUOUS
  0
LAYER
  2
GREEN1
  70
0
  62
98
  6
CONTINUOUS
  0
LAYER
  2
CYAN1
  70
0
  62
138
  6
CONTINUOUS
  0
LAYER
  2
RED1
  70
0
  62
18
  6
CONTINUOUS
  0
LAYER
  2
MAGENTA1
  70
0
  62
228
  6
CONTINUOUS
  0
LAYER
  2
BROWN1
  70
0
  62
58
  6
CONTINUOUS
  0
LAYER
  2
BLUE2
  70
0
  62
5
  6
CONTINUOUS
  0
LAYER
  2
GREEN2
  70
0
  62
3
  6
CONTINUOUS
  0
LAYER
  2
CYAN2
  70
0
  62
4
  6
CONTINUOUS
  0
LAYER
  2
RED2
  70
0
  62
1
  6
CONTINUOUS
  0
LAYER
  2
MAGENTA2
  70
0
  62
6
  6
CONTINUOUS
  0
LAYER
  2
BROWN2
  70
0
  62
54
  6
CONTINUOUS
  0
LAYER
  2
BLUE3
  70
0
  62
171
  6
CONTINUOUS
  0
LAYER
  2
GREEN3
  70
0
  62
91
  6
CONTINUOUS
  0
LAYER
  2
CYAN3
  70
0
  62
131
  6
CONTINUOUS
  0
LAYER
  2
RED3
  70
0
  62
11
  6
CONTINUOUS
  0
LAYER
  2
MAGENTA3
  70
0
  62
221
  6
CONTINUOUS
  0
LAYER
  2
YELLOW3
  70
0
  62
2
  6
CONTINUOUS
  0
LAYER
  2
BLUE4
  70
0
  62
5
  6
CONTINUOUS
  0
LAYER
  2
GREEN4
  70
0
  62
3
  6
CONTINUOUS
  0
LAYER
  2
CYAN4
  70
0
  62
4
  6
CONTINUOUS
  0
LAYER
  2
RED4
  70
0
  62
1
  6
CONTINUOUS
  0
LAYER
  2
MAGENTA4
  70
0
  62
6
  6
CONTINUOUS
  0
LAYER
  2
YELLOW4
  70
0
  62
2
  6
CONTINUOUS
  0
ENDTAB
  0
ENDSEC
  0
SECTION
  2
ENTITIES
0
LINE
8
BLACK
6
CONTINUOUS
10
145.129
20
-103.195
11
145.48
21
-103.398
0
LINE
8
BLACK
6
CONTINUOUS
10
145.48
20
-103.398
11
145.74
21
-103.709
0
LINE
8
BLACK
6
CONTINUOUS
10
145.74
20
-103.709
11
145.879
21
-104.09
0
LINE
8
BLACK
6
CONTINUOUS
10
145.879
20
-104.09
11
145.879
21
-104.495
0
LINE
8
BLACK
6
CONTINUOUS
10
145.879
20
-104.495
11
145.74
21
-104.876
0
LINE
8
BLACK
6
CONTINUOUS
10
145.74
20
-104.876
11
145.48
21
-105.187
0
LINE
8
BLACK
6
CONTINUOUS
10
145.48
20
-105.187
11
145.129
21
-105.39
0
LINE
8
BLACK
6
CONTINUOUS
10
145.129
20
-105.39
11
144.729
21
-105.46
0
LINE
8
BLACK
6
CONTINUOUS
10
144.729
20
-105.46
11
144.33
21
-105.39
0
LINE
8
BLACK
6
CONTINUOUS
10
144.33
20
-105.39
11
143.979
21
-105.187
0
LINE
8
BLACK
6
CONTINUOUS
10
143.979
20
-105.187
11
143.718
21
-104.876
0
LINE
8
BLACK
6
CONTINUOUS
10
143.718
20
-104.876
11
143.579
21
-104.495
0
LINE
8
BLACK
6
CONTINUOUS
10
143.579
20
-104.495
11
143.579
21
-104.09
0
LINE
8
BLACK
6
CONTINUOUS
10
143.579
20
-104.09
11
143.718
21
-103.709
0
LINE
8
BLACK
6
CONTINUOUS
10
143.718
20
-103.709
11
143.979
21
-103.398
0
LINE
8
BLACK
6
CONTINUOUS
10
143.979
20
-103.398
11
144.33
21
-103.195
0
LINE
8
BLACK
6
CONTINUOUS
10
144.33
20
-103.195
11
144.729
21
-103.125
0
LINE
8
BLACK
6
CONTINUOUS
10
144.729
20
-103.125
11
145.129
21
-103.195
0
LINE
8
BLACK
6
CONTINUOUS
10
129.889
20
-103.195
11
130.24
21
-103.398
0
LINE
8
BLACK
6
CONTINUOUS
10
130.24
20
-103.398
11
130.5
21
-103.709
0
LINE
8
BLACK
6
CONTINUOUS
10
130.5
20
-103.709
11
130.639
21
-104.09
0
LINE
8
BLACK
6
CONTINUOUS
10
130.639
20
-104.09
11
130.639
21
-104.495
0
LINE
8
BLACK
6
CONTINUOUS
10
130.639
20
-104.495
11
130.5
21
-104.876
0
LINE
8
BLACK
6
CONTINUOUS
10
130.5
20
-104.876
11
130.24
21
-105.187
0
LINE
8
BLACK
6
CONTINUOUS
10
130.24
20
-105.187
11
129.889
21
-105.39
0
LINE
8
BLACK
6
CONTINUOUS
10
129.889
20
-105.39
11
129.489
21
-105.46
0
LINE
8
BLACK
6
CONTINUOUS
10
129.489
20
-105.46
11
129.09
21
-105.39
0
LINE
8
BLACK
6
CONTINUOUS
10
129.09
20
-105.39
11
128.739
21
-105.187
0
LINE
8
BLACK
6
CONTINUOUS
10
128.739
20
-105.187
11
128.478
21
-104.876
0
LINE
8
BLACK
6
CONTINUOUS
10
128.478
20
-104.876
11
128.339
21
-104.495
0
LINE
8
BLACK
6
CONTINUOUS
10
128.339
20
-104.495
11
128.339
21
-104.09
0
LINE
8
BLACK
6
CONTINUOUS
10
128.339
20
-104.09
11
128.478
21
-103.709
0
LINE
8
BLACK
6
CONTINUOUS
10
128.478
20
-103.709
11
128.739
21
-103.398
0
LINE
8
BLACK
6
CONTINUOUS
10
128.739
20
-103.398
11
129.09
21
-103.195
0
LINE
8
BLACK
6
CONTINUOUS
10
129.09
20
-103.195
11
129.489
21
-103.125
0
LINE
8
BLACK
6
CONTINUOUS
10
129.489
20
-103.125
11
129.889
21
-103.195
0
LINE
8
BLACK
6
CONTINUOUS
10
136.255
20
-102.275
11
136.575
21
-102.46
0
LINE
8
BLACK
6
CONTINUOUS
10
136.575
20
-102.46
11
136.813
21
-102.743
0
LINE
8
BLACK
6
CONTINUOUS
10
136.813
20
-102.743
11
136.94
21
-103.091
0
LINE
8
BLACK
6
CONTINUOUS
10
136.94
20
-103.091
11
136.94
21
-103.462
0
LINE
8
BLACK
6
CONTINUOUS
10
136.94
20
-103.462
11
136.813
21
-103.809
0
LINE
8
BLACK
6
CONTINUOUS
10
136.813
20
-103.809
11
136.575
21
-104.093
0
LINE
8
BLACK
6
CONTINUOUS
10
136.575
20
-104.093
11
136.255
21
-104.278
0
LINE
8
BLACK
6
CONTINUOUS
10
136.255
20
-104.278
11
135.982
21
-104.326
0
LINE
8
BLACK
6
CONTINUOUS
10
135.982
20
-104.326
11
135.798
21
-104.326
0
LINE
8
BLACK
6
CONTINUOUS
10
135.798
20
-104.326
11
135.525
21
-104.278
0
LINE
8
BLACK
6
CONTINUOUS
10
135.525
20
-104.278
11
135.205
21
-104.093
0
LINE
8
BLACK
6
CONTINUOUS
10
135.205
20
-104.093
11
134.967
21
-103.809
0
LINE
8
BLACK
6
CONTINUOUS
10
134.967
20
-103.809
11
134.84
21
-103.462
0
LINE
8
BLACK
6
CONTINUOUS
10
134.84
20
-103.462
11
134.84
21
-103.091
0
LINE
8
BLACK
6
CONTINUOUS
10
134.84
20
-103.091
11
134.967
21
-102.743
0
LINE
8
BLACK
6
CONTINUOUS
10
134.967
20
-102.743
11
135.205
21
-102.46
0
LINE
8
BLACK
6
CONTINUOUS
10
135.205
20
-102.46
11
135.525
21
-102.275
0
LINE
8
BLACK
6
CONTINUOUS
10
135.525
20
-102.275
11
135.798
21
-102.226
0
LINE
8
BLACK
6
CONTINUOUS
10
135.798
20
-102.226
11
135.982
21
-102.226
0
LINE
8
BLACK
6
CONTINUOUS
10
135.982
20
-102.226
11
136.255
21
-102.275
0
LINE
8
BLACK
6
CONTINUOUS
10
139.48
20
-104.326
11
137.38
21
-104.326
0
LINE
8
BLACK
6
CONTINUOUS
10
137.38
20
-104.326
11
137.38
21
-102.226
0
LINE
8
BLACK
6
CONTINUOUS
10
137.38
20
-102.226
11
139.48
21
-102.226
0
LINE
8
BLACK
6
CONTINUOUS
10
139.48
20
-102.226
11
139.48
21
-104.326
0
LINE
8
BLACK
6
CONTINUOUS
10
169.042
20
-98.1374
11
169.958
21
-98.6664
0
LINE
8
BLACK
6
CONTINUOUS
10
169.958
20
-98.6664
11
170.638
21
-99.4769
0
LINE
8
BLACK
6
CONTINUOUS
10
170.638
20
-99.4769
11
171
21
-100.471
0
LINE
8
BLACK
6
CONTINUOUS
10
171
20
-100.471
11
171
21
-101.529
0
LINE
8
BLACK
6
CONTINUOUS
10
171
20
-101.529
11
170.638
21
-102.523
0
LINE
8
BLACK
6
CONTINUOUS
10
170.638
20
-102.523
11
169.958
21
-103.334
0
LINE
8
BLACK
6
CONTINUOUS
10
169.958
20
-103.334
11
169.042
21
-103.863
0
LINE
8
BLACK
6
CONTINUOUS
10
169.042
20
-103.863
11
168
21
-104.046
0
LINE
8
BLACK
6
CONTINUOUS
10
168
20
-104.046
11
166.958
21
-103.863
0
LINE
8
BLACK
6
CONTINUOUS
10
166.958
20
-103.863
11
166.042
21
-103.334
0
LINE
8
BLACK
6
CONTINUOUS
10
166.042
20
-103.334
11
165.362
21
-102.523
0
LINE
8
BLACK
6
CONTINUOUS
10
165.362
20
-102.523
11
165
21
-101.529
0
LINE
8
BLACK
6
CONTINUOUS
10
165
20
-101.529
11
165
21
-100.471
0
LINE
8
BLACK
6
CONTINUOUS
10
165
20
-100.471
11
165.362
21
-99.4769
0
LINE
8
BLACK
6
CONTINUOUS
10
165.362
20
-99.4769
11
166.042
21
-98.6664
0
LINE
8
BLACK
6
CONTINUOUS
10
166.042
20
-98.6664
11
166.958
21
-98.1374
0
LINE
8
BLACK
6
CONTINUOUS
10
166.958
20
-98.1374
11
168
21
-97.9537
0
LINE
8
BLACK
6
CONTINUOUS
10
168
20
-97.9537
11
169.042
21
-98.1374
0
LINE
8
BLACK
6
CONTINUOUS
10
107.985
20
-103.311
11
105.985
21
-103.311
0
LINE
8
BLACK
6
CONTINUOUS
10
105.985
20
-103.311
11
105.985
21
-101.311
0
LINE
8
BLACK
6
CONTINUOUS
10
105.985
20
-101.311
11
107.985
21
-101.311
0
LINE
8
BLACK
6
CONTINUOUS
10
107.985
20
-101.311
11
107.985
21
-103.311
0
LINE
8
BLACK
6
CONTINUOUS
10
145.129
20
-100.655
11
145.48
21
-100.858
0
LINE
8
BLACK
6
CONTINUOUS
10
145.48
20
-100.858
11
145.74
21
-101.169
0
LINE
8
BLACK
6
CONTINUOUS
10
145.74
20
-101.169
11
145.879
21
-101.55
0
LINE
8
BLACK
6
CONTINUOUS
10
145.879
20
-101.55
11
145.879
21
-101.955
0
LINE
8
BLACK
6
CONTINUOUS
10
145.879
20
-101.955
11
145.74
21
-102.336
0
LINE
8
BLACK
6
CONTINUOUS
10
145.74
20
-102.336
11
145.48
21
-102.647
0
LINE
8
BLACK
6
CONTINUOUS
10
145.48
20
-102.647
11
145.129
21
-102.85
0
LINE
8
BLACK
6
CONTINUOUS
10
145.129
20
-102.85
11
144.729
21
-102.92
0
LINE
8
BLACK
6
CONTINUOUS
10
144.729
20
-102.92
11
144.33
21
-102.85
0
LINE
8
BLACK
6
CONTINUOUS
10
144.33
20
-102.85
11
143.979
21
-102.647
0
LINE
8
BLACK
6
CONTINUOUS
10
143.979
20
-102.647
11
143.718
21
-102.336
0
LINE
8
BLACK
6
CONTINUOUS
10
143.718
20
-102.336
11
143.579
21
-101.955
0
LINE
8
BLACK
6
CONTINUOUS
10
143.579
20
-101.955
11
143.579
21
-101.55
0
LINE
8
BLACK
6
CONTINUOUS
10
143.579
20
-101.55
11
143.718
21
-101.169
0
LINE
8
BLACK
6
CONTINUOUS
10
143.718
20
-101.169
11
143.979
21
-100.858
0
LINE
8
BLACK
6
CONTINUOUS
10
143.979
20
-100.858
11
144.33
21
-100.655
0
LINE
8
BLACK
6
CONTINUOUS
10
144.33
20
-100.655
11
144.729
21
-100.585
0
LINE
8
BLACK
6
CONTINUOUS
10
144.729
20
-100.585
11
145.129
21
-100.655
0
LINE
8
BLACK
6
CONTINUOUS
10
129.889
20
-100.655
11
130.24
21
-100.858
0
LINE
8
BLACK
6
CONTINUOUS
10
130.24
20
-100.858
11
130.5
21
-101.169
0
LINE
8
BLACK
6
CONTINUOUS
10
130.5
20
-101.169
11
130.639
21
-101.55
0
LINE
8
BLACK
6
CONTINUOUS
10
130.639
20
-101.55
11
130.639
21
-101.955
0
LINE
8
BLACK
6
CONTINUOUS
10
130.639
20
-101.955
11
130.5
21
-102.336
0
LINE
8
BLACK
6
CONTINUOUS
10
130.5
20
-102.336
11
130.24
21
-102.647
0
LINE
8
BLACK
6
CONTINUOUS
10
130.24
20
-102.647
11
129.889
21
-102.85
0
LINE
8
BLACK
6
CONTINUOUS
10
129.889
20
-102.85
11
129.489
21
-102.92
0
LINE
8
BLACK
6
CONTINUOUS
10
129.489
20
-102.92
11
129.09
21
-102.85
0
LINE
8
BLACK
6
CONTINUOUS
10
129.09
20
-102.85
11
128.739
21
-102.647
0
LINE
8
BLACK
6
CONTINUOUS
10
128.739
20
-102.647
11
128.478
21
-102.336
0
LINE
8
BLACK
6
CONTINUOUS
10
128.478
20
-102.336
11
128.339
21
-101.955
0
LINE
8
BLACK
6
CONTINUOUS
10
128.339
20
-101.955
11
128.339
21
-101.55
0
LINE
8
BLACK
6
CONTINUOUS
10
128.339
20
-101.55
11
128.478
21
-101.169
0
LINE
8
BLACK
6
CONTINUOUS
10
128.478
20
-101.169
11
128.739
21
-100.858
0
LINE
8
BLACK
6
CONTINUOUS
10
128.739
20
-100.858
11
129.09
21
-100.655
0
LINE
8
BLACK
6
CONTINUOUS
10
129.09
20
-100.655
11
129.489
21
-100.585
0
LINE
8
BLACK
6
CONTINUOUS
10
129.489
20
-100.585
11
129.889
21
-100.655
0
LINE
8
BLACK
6
CONTINUOUS
10
155.482
20
-101.962
11
153.382
21
-101.962
0
LINE
8
BLACK
6
CONTINUOUS
10
153.382
20
-101.962
11
153.382
21
-99.6122
0
LINE
8
BLACK
6
CONTINUOUS
10
153.382
20
-99.6122
11
155.482
21
-99.6122
0
LINE
8
BLACK
6
CONTINUOUS
10
155.482
20
-99.6122
11
155.482
21
-101.962
0
LINE
8
BLACK
6
CONTINUOUS
10
159.965
20
-99.7388
11
160.249
21
-99.9769
0
LINE
8
BLACK
6
CONTINUOUS
10
160.249
20
-99.9769
11
160.434
21
-100.298
0
LINE
8
BLACK
6
CONTINUOUS
10
160.434
20
-100.298
11
160.482
21
-100.57
0
LINE
8
BLACK
6
CONTINUOUS
10
160.482
20
-100.57
11
160.482
21
-101.004
0
LINE
8
BLACK
6
CONTINUOUS
10
160.482
20
-101.004
11
160.434
21
-101.277
0
LINE
8
BLACK
6
CONTINUOUS
10
160.434
20
-101.277
11
160.249
21
-101.598
0
LINE
8
BLACK
6
CONTINUOUS
10
160.249
20
-101.598
11
159.965
21
-101.836
0
LINE
8
BLACK
6
CONTINUOUS
10
159.965
20
-101.836
11
159.617
21
-101.962
0
LINE
8
BLACK
6
CONTINUOUS
10
159.617
20
-101.962
11
159.247
21
-101.962
0
LINE
8
BLACK
6
CONTINUOUS
10
159.247
20
-101.962
11
158.899
21
-101.836
0
LINE
8
BLACK
6
CONTINUOUS
10
158.899
20
-101.836
11
158.615
21
-101.598
0
LINE
8
BLACK
6
CONTINUOUS
10
158.615
20
-101.598
11
158.43
21
-101.277
0
LINE
8
BLACK
6
CONTINUOUS
10
158.43
20
-101.277
11
158.382
21
-101.004
0
LINE
8
BLACK
6
CONTINUOUS
10
158.382
20
-101.004
11
158.382
21
-100.57
0
LINE
8
BLACK
6
CONTINUOUS
10
158.382
20
-100.57
11
158.43
21
-100.298
0
LINE
8
BLACK
6
CONTINUOUS
10
158.43
20
-100.298
11
158.615
21
-99.9769
0
LINE
8
BLACK
6
CONTINUOUS
10
158.615
20
-99.9769
11
158.899
21
-99.7388
0
LINE
8
BLACK
6
CONTINUOUS
10
158.899
20
-99.7388
11
159.247
21
-99.6122
0
LINE
8
BLACK
6
CONTINUOUS
10
159.247
20
-99.6122
11
159.617
21
-99.6122
0
LINE
8
BLACK
6
CONTINUOUS
10
159.617
20
-99.6122
11
159.965
21
-99.7388
0
LINE
8
BLACK
6
CONTINUOUS
10
157.465
20
-99.7388
11
157.749
21
-99.9769
0
LINE
8
BLACK
6
CONTINUOUS
10
157.749
20
-99.9769
11
157.934
21
-100.298
0
LINE
8
BLACK
6
CONTINUOUS
10
157.934
20
-100.298
11
157.982
21
-100.57
0
LINE
8
BLACK
6
CONTINUOUS
10
157.982
20
-100.57
11
157.982
21
-101.004
0
LINE
8
BLACK
6
CONTINUOUS
10
157.982
20
-101.004
11
157.934
21
-101.277
0
LINE
8
BLACK
6
CONTINUOUS
10
157.934
20
-101.277
11
157.749
21
-101.598
0
LINE
8
BLACK
6
CONTINUOUS
10
157.749
20
-101.598
11
157.465
21
-101.836
0
LINE
8
BLACK
6
CONTINUOUS
10
157.465
20
-101.836
11
157.117
21
-101.962
0
LINE
8
BLACK
6
CONTINUOUS
10
157.117
20
-101.962
11
156.747
21
-101.962
0
LINE
8
BLACK
6
CONTINUOUS
10
156.747
20
-101.962
11
156.399
21
-101.836
0
LINE
8
BLACK
6
CONTINUOUS
10
156.399
20
-101.836
11
156.115
21
-101.598
0
LINE
8
BLACK
6
CONTINUOUS
10
156.115
20
-101.598
11
155.93
21
-101.277
0
LINE
8
BLACK
6
CONTINUOUS
10
155.93
20
-101.277
11
155.882
21
-101.004
0
LINE
8
BLACK
6
CONTINUOUS
10
155.882
20
-101.004
11
155.882
21
-100.57
0
LINE
8
BLACK
6
CONTINUOUS
10
155.882
20
-100.57
11
155.93
21
-100.298
0
LINE
8
BLACK
6
CONTINUOUS
10
155.93
20
-100.298
11
156.115
21
-99.9769
0
LINE
8
BLACK
6
CONTINUOUS
10
156.115
20
-99.9769
11
156.399
21
-99.7388
0
LINE
8
BLACK
6
CONTINUOUS
10
156.399
20
-99.7388
11
156.747
21
-99.6122
0
LINE
8
BLACK
6
CONTINUOUS
10
156.747
20
-99.6122
11
157.117
21
-99.6122
0
LINE
8
BLACK
6
CONTINUOUS
10
157.117
20
-99.6122
11
157.465
21
-99.7388
0
LINE
8
BLACK
6
CONTINUOUS
10
119.109
20
-101.302
11
117.009
21
-101.302
0
LINE
8
BLACK
6
CONTINUOUS
10
117.009
20
-101.302
11
117.009
21
-98.9518
0
LINE
8
BLACK
6
CONTINUOUS
10
117.009
20
-98.9518
11
119.109
21
-98.9518
0
LINE
8
BLACK
6
CONTINUOUS
10
119.109
20
-98.9518
11
119.109
21
-101.302
0
LINE
8
BLACK
6
CONTINUOUS
10
121.092
20
-99.0784
11
121.376
21
-99.3165
0
LINE
8
BLACK
6
CONTINUOUS
10
121.376
20
-99.3165
11
121.561
21
-99.6371
0
LINE
8
BLACK
6
CONTINUOUS
10
121.561
20
-99.6371
11
121.609
21
-99.9099
0
LINE
8
BLACK
6
CONTINUOUS
10
121.609
20
-99.9099
11
121.609
21
-100.344
0
LINE
8
BLACK
6
CONTINUOUS
10
121.609
20
-100.344
11
121.561
21
-100.616
0
LINE
8
BLACK
6
CONTINUOUS
10
121.561
20
-100.616
11
121.376
21
-100.937
0
LINE
8
BLACK
6
CONTINUOUS
10
121.376
20
-100.937
11
121.092
21
-101.175
0
LINE
8
BLACK
6
CONTINUOUS
10
121.092
20
-101.175
11
120.744
21
-101.302
0
LINE
8
BLACK
6
CONTINUOUS
10
120.744
20
-101.302
11
120.374
21
-101.302
0
LINE
8
BLACK
6
CONTINUOUS
10
120.374
20
-101.302
11
120.026
21
-101.175
0
LINE
8
BLACK
6
CONTINUOUS
10
120.026
20
-101.175
11
119.742
21
-100.937
0
LINE
8
BLACK
6
CONTINUOUS
10
119.742
20
-100.937
11
119.557
21
-100.616
0
LINE
8
BLACK
6
CONTINUOUS
10
119.557
20
-100.616
11
119.509
21
-100.344
0
LINE
8
BLACK
6
CONTINUOUS
10
119.509
20
-100.344
11
119.509
21
-99.9099
0
LINE
8
BLACK
6
CONTINUOUS
10
119.509
20
-99.9099
11
119.557
21
-99.6371
0
LINE
8
BLACK
6
CONTINUOUS
10
119.557
20
-99.6371
11
119.742
21
-99.3165
0
LINE
8
BLACK
6
CONTINUOUS
10
119.742
20
-99.3165
11
120.026
21
-99.0784
0
LINE
8
BLACK
6
CONTINUOUS
10
120.026
20
-99.0784
11
120.374
21
-98.9518
0
LINE
8
BLACK
6
CONTINUOUS
10
120.374
20
-98.9518
11
120.744
21
-98.9518
0
LINE
8
BLACK
6
CONTINUOUS
10
120.744
20
-98.9518
11
121.092
21
-99.0784
0
LINE
8
BLACK
6
CONTINUOUS
10
123.592
20
-99.0784
11
123.876
21
-99.3165
0
LINE
8
BLACK
6
CONTINUOUS
10
123.876
20
-99.3165
11
124.061
21
-99.6371
0
LINE
8
BLACK
6
CONTINUOUS
10
124.061
20
-99.6371
11
124.109
21
-99.9099
0
LINE
8
BLACK
6
CONTINUOUS
10
124.109
20
-99.9099
11
124.109
21
-100.344
0
LINE
8
BLACK
6
CONTINUOUS
10
124.109
20
-100.344
11
124.061
21
-100.616
0
LINE
8
BLACK
6
CONTINUOUS
10
124.061
20
-100.616
11
123.876
21
-100.937
0
LINE
8
BLACK
6
CONTINUOUS
10
123.876
20
-100.937
11
123.592
21
-101.175
0
LINE
8
BLACK
6
CONTINUOUS
10
123.592
20
-101.175
11
123.244
21
-101.302
0
LINE
8
BLACK
6
CONTINUOUS
10
123.244
20
-101.302
11
122.874
21
-101.302
0
LINE
8
BLACK
6
CONTINUOUS
10
122.874
20
-101.302
11
122.526
21
-101.175
0
LINE
8
BLACK
6
CONTINUOUS
10
122.526
20
-101.175
11
122.242
21
-100.937
0
LINE
8
BLACK
6
CONTINUOUS
10
122.242
20
-100.937
11
122.057
21
-100.616
0
LINE
8
BLACK
6
CONTINUOUS
10
122.057
20
-100.616
11
122.009
21
-100.344
0
LINE
8
BLACK
6
CONTINUOUS
10
122.009
20
-100.344
11
122.009
21
-99.9099
0
LINE
8
BLACK
6
CONTINUOUS
10
122.009
20
-99.9099
11
122.057
21
-99.6371
0
LINE
8
BLACK
6
CONTINUOUS
10
122.057
20
-99.6371
11
122.242
21
-99.3165
0
LINE
8
BLACK
6
CONTINUOUS
10
122.242
20
-99.3165
11
122.526
21
-99.0784
0
LINE
8
BLACK
6
CONTINUOUS
10
122.526
20
-99.0784
11
122.874
21
-98.9518
0
LINE
8
BLACK
6
CONTINUOUS
10
122.874
20
-98.9518
11
123.244
21
-98.9518
0
LINE
8
BLACK
6
CONTINUOUS
10
123.244
20
-98.9518
11
123.592
21
-99.0784
0
LINE
8
BLACK
6
CONTINUOUS
10
141.372
20
-99.7892
11
141.474
21
-99.8478
0
LINE
8
BLACK
6
CONTINUOUS
10
141.474
20
-99.8478
11
141.549
21
-99.9376
0
LINE
8
BLACK
6
CONTINUOUS
10
141.549
20
-99.9376
11
141.594
21
-100.106
0
LINE
8
BLACK
6
CONTINUOUS
10
141.594
20
-100.106
11
141.594
21
-100.881
0
LINE
8
BLACK
6
CONTINUOUS
10
141.594
20
-100.881
11
141.574
21
-100.997
0
LINE
8
BLACK
6
CONTINUOUS
10
141.574
20
-100.997
11
141.515
21
-101.098
0
LINE
8
BLACK
6
CONTINUOUS
10
141.515
20
-101.098
11
141.425
21
-101.174
0
LINE
8
BLACK
6
CONTINUOUS
10
141.425
20
-101.174
11
141.257
21
-101.219
0
LINE
8
BLACK
6
CONTINUOUS
10
141.257
20
-101.219
11
140.582
21
-101.219
0
LINE
8
BLACK
6
CONTINUOUS
10
140.582
20
-101.219
11
140.466
21
-101.198
0
LINE
8
BLACK
6
CONTINUOUS
10
140.466
20
-101.198
11
140.365
21
-101.14
0
LINE
8
BLACK
6
CONTINUOUS
10
140.365
20
-101.14
11
140.289
21
-101.05
0
LINE
8
BLACK
6
CONTINUOUS
10
140.289
20
-101.05
11
140.244
21
-100.881
0
LINE
8
BLACK
6
CONTINUOUS
10
140.244
20
-100.881
11
140.244
21
-100.106
0
LINE
8
BLACK
6
CONTINUOUS
10
140.244
20
-100.106
11
140.265
21
-99.9909
0
LINE
8
BLACK
6
CONTINUOUS
10
140.265
20
-99.9909
11
140.323
21
-99.8894
0
LINE
8
BLACK
6
CONTINUOUS
10
140.323
20
-99.8894
11
140.413
21
-99.814
0
LINE
8
BLACK
6
CONTINUOUS
10
140.413
20
-99.814
11
140.582
21
-99.7688
0
LINE
8
BLACK
6
CONTINUOUS
10
140.582
20
-99.7688
11
141.257
21
-99.7688
0
LINE
8
BLACK
6
CONTINUOUS
10
141.257
20
-99.7688
11
141.372
21
-99.7892
0
LINE
8
BLACK
6
CONTINUOUS
10
134.514
20
-99.7384
11
134.616
21
-99.797
0
LINE
8
BLACK
6
CONTINUOUS
10
134.616
20
-99.797
11
134.691
21
-99.8867
0
LINE
8
BLACK
6
CONTINUOUS
10
134.691
20
-99.8867
11
134.736
21
-100.055
0
LINE
8
BLACK
6
CONTINUOUS
10
134.736
20
-100.055
11
134.736
21
-100.831
0
LINE
8
BLACK
6
CONTINUOUS
10
134.736
20
-100.831
11
134.716
21
-100.946
0
LINE
8
BLACK
6
CONTINUOUS
10
134.716
20
-100.946
11
134.657
21
-101.047
0
LINE
8
BLACK
6
CONTINUOUS
10
134.657
20
-101.047
11
134.567
21
-101.123
0
LINE
8
BLACK
6
CONTINUOUS
10
134.567
20
-101.123
11
134.399
21
-101.168
0
LINE
8
BLACK
6
CONTINUOUS
10
134.399
20
-101.168
11
133.724
21
-101.168
0
LINE
8
BLACK
6
CONTINUOUS
10
133.724
20
-101.168
11
133.608
21
-101.148
0
LINE
8
BLACK
6
CONTINUOUS
10
133.608
20
-101.148
11
133.507
21
-101.089
0
LINE
8
BLACK
6
CONTINUOUS
10
133.507
20
-101.089
11
133.431
21
-100.999
0
LINE
8
BLACK
6
CONTINUOUS
10
133.431
20
-100.999
11
133.386
21
-100.831
0
LINE
8
BLACK
6
CONTINUOUS
10
133.386
20
-100.831
11
133.386
21
-100.055
0
LINE
8
BLACK
6
CONTINUOUS
10
133.386
20
-100.055
11
133.407
21
-99.9401
0
LINE
8
BLACK
6
CONTINUOUS
10
133.407
20
-99.9401
11
133.465
21
-99.8386
0
LINE
8
BLACK
6
CONTINUOUS
10
133.465
20
-99.8386
11
133.555
21
-99.7632
0
LINE
8
BLACK
6
CONTINUOUS
10
133.555
20
-99.7632
11
133.724
21
-99.718
0
LINE
8
BLACK
6
CONTINUOUS
10
133.724
20
-99.718
11
134.399
21
-99.718
0
LINE
8
BLACK
6
CONTINUOUS
10
134.399
20
-99.718
11
134.514
21
-99.7384
0
LINE
8
BLACK
6
CONTINUOUS
10
145.129
20
-98.1151
11
145.48
21
-98.3179
0
LINE
8
BLACK
6
CONTINUOUS
10
145.48
20
-98.3179
11
145.74
21
-98.6285
0
LINE
8
BLACK
6
CONTINUOUS
10
145.74
20
-98.6285
11
145.879
21
-99.0096
0
LINE
8
BLACK
6
CONTINUOUS
10
145.879
20
-99.0096
11
145.879
21
-99.4152
0
LINE
8
BLACK
6
CONTINUOUS
10
145.879
20
-99.4152
11
145.74
21
-99.7963
0
LINE
8
BLACK
6
CONTINUOUS
10
145.74
20
-99.7963
11
145.48
21
-100.107
0
LINE
8
BLACK
6
CONTINUOUS
10
145.48
20
-100.107
11
145.129
21
-100.31
0
LINE
8
BLACK
6
CONTINUOUS
10
145.129
20
-100.31
11
144.729
21
-100.38
0
LINE
8
BLACK
6
CONTINUOUS
10
144.729
20
-100.38
11
144.33
21
-100.31
0
LINE
8
BLACK
6
CONTINUOUS
10
144.33
20
-100.31
11
143.979
21
-100.107
0
LINE
8
BLACK
6
CONTINUOUS
10
143.979
20
-100.107
11
143.718
21
-99.7963
0
LINE
8
BLACK
6
CONTINUOUS
10
143.718
20
-99.7963
11
143.579
21
-99.4152
0
LINE
8
BLACK
6
CONTINUOUS
10
143.579
20
-99.4152
11
143.579
21
-99.0096
0
LINE
8
BLACK
6
CONTINUOUS
10
143.579
20
-99.0096
11
143.718
21
-98.6285
0
LINE
8
BLACK
6
CONTINUOUS
10
143.718
20
-98.6285
11
143.979
21
-98.3179
0
LINE
8
BLACK
6
CONTINUOUS
10
143.979
20
-98.3179
11
144.33
21
-98.1151
0
LINE
8
BLACK
6
CONTINUOUS
10
144.33
20
-98.1151
11
144.729
21
-98.0447
0
LINE
8
BLACK
6
CONTINUOUS
10
144.729
20
-98.0447
11
145.129
21
-98.1151
0
LINE
8
BLACK
6
CONTINUOUS
10
129.889
20
-98.1151
11
130.24
21
-98.3179
0
LINE
8
BLACK
6
CONTINUOUS
10
130.24
20
-98.3179
11
130.5
21
-98.6285
0
LINE
8
BLACK
6
CONTINUOUS
10
130.5
20
-98.6285
11
130.639
21
-99.0096
0
LINE
8
BLACK
6
CONTINUOUS
10
130.639
20
-99.0096
11
130.639
21
-99.4152
0
LINE
8
BLACK
6
CONTINUOUS
10
130.639
20
-99.4152
11
130.5
21
-99.7963
0
LINE
8
BLACK
6
CONTINUOUS
10
130.5
20
-99.7963
11
130.24
21
-100.107
0
LINE
8
BLACK
6
CONTINUOUS
10
130.24
20
-100.107
11
129.889
21
-100.31
0
LINE
8
BLACK
6
CONTINUOUS
10
129.889
20
-100.31
11
129.489
21
-100.38
0
LINE
8
BLACK
6
CONTINUOUS
10
129.489
20
-100.38
11
129.09
21
-100.31
0
LINE
8
BLACK
6
CONTINUOUS
10
129.09
20
-100.31
11
128.739
21
-100.107
0
LINE
8
BLACK
6
CONTINUOUS
10
128.739
20
-100.107
11
128.478
21
-99.7963
0
LINE
8
BLACK
6
CONTINUOUS
10
128.478
20
-99.7963
11
128.339
21
-99.4152
0
LINE
8
BLACK
6
CONTINUOUS
10
128.339
20
-99.4152
11
128.339
21
-99.0096
0
LINE
8
BLACK
6
CONTINUOUS
10
128.339
20
-99.0096
11
128.478
21
-98.6285
0
LINE
8
BLACK
6
CONTINUOUS
10
128.478
20
-98.6285
11
128.739
21
-98.3179
0
LINE
8
BLACK
6
CONTINUOUS
10
128.739
20
-98.3179
11
129.09
21
-98.1151
0
LINE
8
BLACK
6
CONTINUOUS
10
129.09
20
-98.1151
11
129.489
21
-98.0447
0
LINE
8
BLACK
6
CONTINUOUS
10
129.489
20
-98.0447
11
129.889
21
-98.1151
0
LINE
8
BLACK
6
CONTINUOUS
10
141.372
20
-98.0392
11
141.474
21
-98.0978
0
LINE
8
BLACK
6
CONTINUOUS
10
141.474
20
-98.0978
11
141.549
21
-98.1876
0
LINE
8
BLACK
6
CONTINUOUS
10
141.549
20
-98.1876
11
141.594
21
-98.3563
0
LINE
8
BLACK
6
CONTINUOUS
10
141.594
20
-98.3563
11
141.594
21
-99.1313
0
LINE
8
BLACK
6
CONTINUOUS
10
141.594
20
-99.1313
11
141.574
21
-99.2467
0
LINE
8
BLACK
6
CONTINUOUS
10
141.574
20
-99.2467
11
141.515
21
-99.3482
0
LINE
8
BLACK
6
CONTINUOUS
10
141.515
20
-99.3482
11
141.425
21
-99.4236
0
LINE
8
BLACK
6
CONTINUOUS
10
141.425
20
-99.4236
11
141.257
21
-99.4688
0
LINE
8
BLACK
6
CONTINUOUS
10
141.257
20
-99.4688
11
140.582
21
-99.4688
0
LINE
8
BLACK
6
CONTINUOUS
10
140.582
20
-99.4688
11
140.466
21
-99.4484
0
LINE
8
BLACK
6
CONTINUOUS
10
140.466
20
-99.4484
11
140.365
21
-99.3898
0
LINE
8
BLACK
6
CONTINUOUS
10
140.365
20
-99.3898
11
140.289
21
-99.3
0
LINE
8
BLACK
6
CONTINUOUS
10
140.289
20
-99.3
11
140.244
21
-99.1313
0
LINE
8
BLACK
6
CONTINUOUS
10
140.244
20
-99.1313
11
140.244
21
-98.3563
0
LINE
8
BLACK
6
CONTINUOUS
10
140.244
20
-98.3563
11
140.265
21
-98.2409
0
LINE
8
BLACK
6
CONTINUOUS
10
140.265
20
-98.2409
11
140.323
21
-98.1394
0
LINE
8
BLACK
6
CONTINUOUS
10
140.323
20
-98.1394
11
140.413
21
-98.064
0
LINE
8
BLACK
6
CONTINUOUS
10
140.413
20
-98.064
11
140.582
21
-98.0188
0
LINE
8
BLACK
6
CONTINUOUS
10
140.582
20
-98.0188
11
141.257
21
-98.0188
0
LINE
8
BLACK
6
CONTINUOUS
10
141.257
20
-98.0188
11
141.372
21
-98.0392
0
LINE
8
BLACK
6
CONTINUOUS
10
134.514
20
-97.9884
11
134.616
21
-98.047
0
LINE
8
BLACK
6
CONTINUOUS
10
134.616
20
-98.047
11
134.691
21
-98.1367
0
LINE
8
BLACK
6
CONTINUOUS
10
134.691
20
-98.1367
11
134.736
21
-98.3055
0
LINE
8
BLACK
6
CONTINUOUS
10
134.736
20
-98.3055
11
134.736
21
-99.0805
0
LINE
8
BLACK
6
CONTINUOUS
10
134.736
20
-99.0805
11
134.716
21
-99.1959
0
LINE
8
BLACK
6
CONTINUOUS
10
134.716
20
-99.1959
11
134.657
21
-99.2974
0
LINE
8
BLACK
6
CONTINUOUS
10
134.657
20
-99.2974
11
134.567
21
-99.3728
0
LINE
8
BLACK
6
CONTINUOUS
10
134.567
20
-99.3728
11
134.399
21
-99.418
0
LINE
8
BLACK
6
CONTINUOUS
10
134.399
20
-99.418
11
133.724
21
-99.418
0
LINE
8
BLACK
6
CONTINUOUS
10
133.724
20
-99.418
11
133.608
21
-99.3976
0
LINE
8
BLACK
6
CONTINUOUS
10
133.608
20
-99.3976
11
133.507
21
-99.339
0
LINE
8
BLACK
6
CONTINUOUS
10
133.507
20
-99.339
11
133.431
21
-99.2492
0
LINE
8
BLACK
6
CONTINUOUS
10
133.431
20
-99.2492
11
133.386
21
-99.0805
0
LINE
8
BLACK
6
CONTINUOUS
10
133.386
20
-99.0805
11
133.386
21
-98.3055
0
LINE
8
BLACK
6
CONTINUOUS
10
133.386
20
-98.3055
11
133.407
21
-98.1901
0
LINE
8
BLACK
6
CONTINUOUS
10
133.407
20
-98.1901
11
133.465
21
-98.0886
0
LINE
8
BLACK
6
CONTINUOUS
10
133.465
20
-98.0886
11
133.555
21
-98.0132
0
LINE
8
BLACK
6
CONTINUOUS
10
133.555
20
-98.0132
11
133.724
21
-97.968
0
LINE
8
BLACK
6
CONTINUOUS
10
133.724
20
-97.968
11
134.399
21
-97.968
0
LINE
8
BLACK
6
CONTINUOUS
10
134.399
20
-97.968
11
134.514
21
-97.9884
0
LINE
8
BLACK
6
CONTINUOUS
10
145.129
20
-95.5751
11
145.48
21
-95.7779
0
LINE
8
BLACK
6
CONTINUOUS
10
145.48
20
-95.7779
11
145.74
21
-96.0885
0
LINE
8
BLACK
6
CONTINUOUS
10
145.74
20
-96.0885
11
145.879
21
-96.4696
0
LINE
8
BLACK
6
CONTINUOUS
10
145.879
20
-96.4696
11
145.879
21
-96.8752
0
LINE
8
BLACK
6
CONTINUOUS
10
145.879
20
-96.8752
11
145.74
21
-97.2563
0
LINE
8
BLACK
6
CONTINUOUS
10
145.74
20
-97.2563
11
145.48
21
-97.5669
0
LINE
8
BLACK
6
CONTINUOUS
10
145.48
20
-97.5669
11
145.129
21
-97.7697
0
LINE
8
BLACK
6
CONTINUOUS
10
145.129
20
-97.7697
11
144.729
21
-97.8401
0
LINE
8
BLACK
6
CONTINUOUS
10
144.729
20
-97.8401
11
144.33
21
-97.7697
0
LINE
8
BLACK
6
CONTINUOUS
10
144.33
20
-97.7697
11
143.979
21
-97.5669
0
LINE
8
BLACK
6
CONTINUOUS
10
143.979
20
-97.5669
11
143.718
21
-97.2563
0
LINE
8
BLACK
6
CONTINUOUS
10
143.718
20
-97.2563
11
143.579
21
-96.8752
0
LINE
8
BLACK
6
CONTINUOUS
10
143.579
20
-96.8752
11
143.579
21
-96.4696
0
LINE
8
BLACK
6
CONTINUOUS
10
143.579
20
-96.4696
11
143.718
21
-96.0885
0
LINE
8
BLACK
6
CONTINUOUS
10
143.718
20
-96.0885
11
143.979
21
-95.7779
0
LINE
8
BLACK
6
CONTINUOUS
10
143.979
20
-95.7779
11
144.33
21
-95.5751
0
LINE
8
BLACK
6
CONTINUOUS
10
144.33
20
-95.5751
11
144.729
21
-95.5047
0
LINE
8
BLACK
6
CONTINUOUS
10
144.729
20
-95.5047
11
145.129
21
-95.5751
0
LINE
8
BLACK
6
CONTINUOUS
10
129.889
20
-95.5751
11
130.24
21
-95.7779
0
LINE
8
BLACK
6
CONTINUOUS
10
130.24
20
-95.7779
11
130.5
21
-96.0885
0
LINE
8
BLACK
6
CONTINUOUS
10
130.5
20
-96.0885
11
130.639
21
-96.4696
0
LINE
8
BLACK
6
CONTINUOUS
10
130.639
20
-96.4696
11
130.639
21
-96.8752
0
LINE
8
BLACK
6
CONTINUOUS
10
130.639
20
-96.8752
11
130.5
21
-97.2563
0
LINE
8
BLACK
6
CONTINUOUS
10
130.5
20
-97.2563
11
130.24
21
-97.5669
0
LINE
8
BLACK
6
CONTINUOUS
10
130.24
20
-97.5669
11
129.889
21
-97.7697
0
LINE
8
BLACK
6
CONTINUOUS
10
129.889
20
-97.7697
11
129.489
21
-97.8401
0
LINE
8
BLACK
6
CONTINUOUS
10
129.489
20
-97.8401
11
129.09
21
-97.7697
0
LINE
8
BLACK
6
CONTINUOUS
10
129.09
20
-97.7697
11
128.739
21
-97.5669
0
LINE
8
BLACK
6
CONTINUOUS
10
128.739
20
-97.5669
11
128.478
21
-97.2563
0
LINE
8
BLACK
6
CONTINUOUS
10
128.478
20
-97.2563
11
128.339
21
-96.8752
0
LINE
8
BLACK
6
CONTINUOUS
10
128.339
20
-96.8752
11
128.339
21
-96.4696
0
LINE
8
BLACK
6
CONTINUOUS
10
128.339
20
-96.4696
11
128.478
21
-96.0885
0
LINE
8
BLACK
6
CONTINUOUS
10
128.478
20
-96.0885
11
128.739
21
-95.7779
0
LINE
8
BLACK
6
CONTINUOUS
10
128.739
20
-95.7779
11
129.09
21
-95.5751
0
LINE
8
BLACK
6
CONTINUOUS
10
129.09
20
-95.5751
11
129.489
21
-95.5047
0
LINE
8
BLACK
6
CONTINUOUS
10
129.489
20
-95.5047
11
129.889
21
-95.5751
0
LINE
8
BLACK
6
CONTINUOUS
10
137.796
20
-93.6302
11
138.107
21
-93.8915
0
LINE
8
BLACK
6
CONTINUOUS
10
138.107
20
-93.8915
11
138.311
21
-94.2434
0
LINE
8
BLACK
6
CONTINUOUS
10
138.311
20
-94.2434
11
138.363
21
-94.5429
0
LINE
8
BLACK
6
CONTINUOUS
10
138.363
20
-94.5429
11
138.363
21
-94.8395
0
LINE
8
BLACK
6
CONTINUOUS
10
138.363
20
-94.8395
11
138.311
21
-95.139
0
LINE
8
BLACK
6
CONTINUOUS
10
138.311
20
-95.139
11
138.107
21
-95.4909
0
LINE
8
BLACK
6
CONTINUOUS
10
138.107
20
-95.4909
11
137.796
21
-95.7522
0
LINE
8
BLACK
6
CONTINUOUS
10
137.796
20
-95.7522
11
137.414
21
-95.8912
0
LINE
8
BLACK
6
CONTINUOUS
10
137.414
20
-95.8912
11
137.008
21
-95.8912
0
LINE
8
BLACK
6
CONTINUOUS
10
137.008
20
-95.8912
11
136.626
21
-95.7522
0
LINE
8
BLACK
6
CONTINUOUS
10
136.626
20
-95.7522
11
136.314
21
-95.4909
0
LINE
8
BLACK
6
CONTINUOUS
10
136.314
20
-95.4909
11
136.111
21
-95.139
0
LINE
8
BLACK
6
CONTINUOUS
10
136.111
20
-95.139
11
136.058
21
-94.8395
0
LINE
8
BLACK
6
CONTINUOUS
10
136.058
20
-94.8395
11
136.058
21
-94.5429
0
LINE
8
BLACK
6
CONTINUOUS
10
136.058
20
-94.5429
11
136.111
21
-94.2434
0
LINE
8
BLACK
6
CONTINUOUS
10
136.111
20
-94.2434
11
136.314
21
-93.8915
0
LINE
8
BLACK
6
CONTINUOUS
10
136.314
20
-93.8915
11
136.626
21
-93.6302
0
LINE
8
BLACK
6
CONTINUOUS
10
136.626
20
-93.6302
11
137.008
21
-93.4912
0
LINE
8
BLACK
6
CONTINUOUS
10
137.008
20
-93.4912
11
137.414
21
-93.4912
0
LINE
8
BLACK
6
CONTINUOUS
10
137.414
20
-93.4912
11
137.796
21
-93.6302
0
LINE
8
BLACK
6
CONTINUOUS
10
140.336
20
-93.6302
11
140.647
21
-93.8915
0
LINE
8
BLACK
6
CONTINUOUS
10
140.647
20
-93.8915
11
140.851
21
-94.2434
0
LINE
8
BLACK
6
CONTINUOUS
10
140.851
20
-94.2434
11
140.903
21
-94.5429
0
LINE
8
BLACK
6
CONTINUOUS
10
140.903
20
-94.5429
11
140.903
21
-94.8395
0
LINE
8
BLACK
6
CONTINUOUS
10
140.903
20
-94.8395
11
140.851
21
-95.139
0
LINE
8
BLACK
6
CONTINUOUS
10
140.851
20
-95.139
11
140.647
21
-95.4909
0
LINE
8
BLACK
6
CONTINUOUS
10
140.647
20
-95.4909
11
140.336
21
-95.7522
0
LINE
8
BLACK
6
CONTINUOUS
10
140.336
20
-95.7522
11
139.954
21
-95.8912
0
LINE
8
BLACK
6
CONTINUOUS
10
139.954
20
-95.8912
11
139.548
21
-95.8912
0
LINE
8
BLACK
6
CONTINUOUS
10
139.548
20
-95.8912
11
139.166
21
-95.7522
0
LINE
8
BLACK
6
CONTINUOUS
10
139.166
20
-95.7522
11
138.854
21
-95.4909
0
LINE
8
BLACK
6
CONTINUOUS
10
138.854
20
-95.4909
11
138.651
21
-95.139
0
LINE
8
BLACK
6
CONTINUOUS
10
138.651
20
-95.139
11
138.598
21
-94.8395
0
LINE
8
BLACK
6
CONTINUOUS
10
138.598
20
-94.8395
11
138.598
21
-94.5429
0
LINE
8
BLACK
6
CONTINUOUS
10
138.598
20
-94.5429
11
138.651
21
-94.2434
0
LINE
8
BLACK
6
CONTINUOUS
10
138.651
20
-94.2434
11
138.854
21
-93.8915
0
LINE
8
BLACK
6
CONTINUOUS
10
138.854
20
-93.8915
11
139.166
21
-93.6302
0
LINE
8
BLACK
6
CONTINUOUS
10
139.166
20
-93.6302
11
139.548
21
-93.4912
0
LINE
8
BLACK
6
CONTINUOUS
10
139.548
20
-93.4912
11
139.954
21
-93.4912
0
LINE
8
BLACK
6
CONTINUOUS
10
139.954
20
-93.4912
11
140.336
21
-93.6302
0
LINE
8
BLACK
6
CONTINUOUS
10
135.823
20
-95.8912
11
133.518
21
-95.8912
0
LINE
8
BLACK
6
CONTINUOUS
10
133.518
20
-95.8912
11
133.518
21
-93.4912
0
LINE
8
BLACK
6
CONTINUOUS
10
133.518
20
-93.4912
11
135.823
21
-93.4912
0
LINE
8
BLACK
6
CONTINUOUS
10
135.823
20
-93.4912
11
135.823
21
-95.8912
0
LINE
8
BLACK
6
CONTINUOUS
10
107.332
20
-93.757
11
107.638
21
-93.9333
0
LINE
8
BLACK
6
CONTINUOUS
10
107.638
20
-93.9333
11
107.864
21
-94.2035
0
LINE
8
BLACK
6
CONTINUOUS
10
107.864
20
-94.2035
11
107.985
21
-94.5349
0
LINE
8
BLACK
6
CONTINUOUS
10
107.985
20
-94.5349
11
107.985
21
-94.8875
0
LINE
8
BLACK
6
CONTINUOUS
10
107.985
20
-94.8875
11
107.864
21
-95.2189
0
LINE
8
BLACK
6
CONTINUOUS
10
107.864
20
-95.2189
11
107.638
21
-95.4891
0
LINE
8
BLACK
6
CONTINUOUS
10
107.638
20
-95.4891
11
107.332
21
-95.6654
0
LINE
8
BLACK
6
CONTINUOUS
10
107.332
20
-95.6654
11
106.985
21
-95.7266
0
LINE
8
BLACK
6
CONTINUOUS
10
106.985
20
-95.7266
11
106.638
21
-95.6654
0
LINE
8
BLACK
6
CONTINUOUS
10
106.638
20
-95.6654
11
106.332
21
-95.4891
0
LINE
8
BLACK
6
CONTINUOUS
10
106.332
20
-95.4891
11
106.105
21
-95.2189
0
LINE
8
BLACK
6
CONTINUOUS
10
106.105
20
-95.2189
11
105.985
21
-94.8875
0
LINE
8
BLACK
6
CONTINUOUS
10
105.985
20
-94.8875
11
105.985
21
-94.5349
0
LINE
8
BLACK
6
CONTINUOUS
10
105.985
20
-94.5349
11
106.105
21
-94.2035
0
LINE
8
BLACK
6
CONTINUOUS
10
106.105
20
-94.2035
11
106.332
21
-93.9333
0
LINE
8
BLACK
6
CONTINUOUS
10
106.332
20
-93.9333
11
106.638
21
-93.757
0
LINE
8
BLACK
6
CONTINUOUS
10
106.638
20
-93.757
11
106.985
21
-93.6958
0
LINE
8
BLACK
6
CONTINUOUS
10
106.985
20
-93.6958
11
107.332
21
-93.757
0
LINE
8
BLACK
6
CONTINUOUS
10
111.439
20
-94.0874
11
111.54
21
-94.146
0
LINE
8
BLACK
6
CONTINUOUS
10
111.54
20
-94.146
11
111.616
21
-94.2357
0
LINE
8
BLACK
6
CONTINUOUS
10
111.616
20
-94.2357
11
111.661
21
-94.4045
0
LINE
8
BLACK
6
CONTINUOUS
10
111.661
20
-94.4045
11
111.661
21
-95.0795
0
LINE
8
BLACK
6
CONTINUOUS
10
111.661
20
-95.0795
11
111.64
21
-95.1949
0
LINE
8
BLACK
6
CONTINUOUS
10
111.64
20
-95.1949
11
111.582
21
-95.2964
0
LINE
8
BLACK
6
CONTINUOUS
10
111.582
20
-95.2964
11
111.492
21
-95.3718
0
LINE
8
BLACK
6
CONTINUOUS
10
111.492
20
-95.3718
11
111.323
21
-95.417
0
LINE
8
BLACK
6
CONTINUOUS
10
111.323
20
-95.417
11
110.548
21
-95.417
0
LINE
8
BLACK
6
CONTINUOUS
10
110.548
20
-95.417
11
110.433
21
-95.3966
0
LINE
8
BLACK
6
CONTINUOUS
10
110.433
20
-95.3966
11
110.331
21
-95.338
0
LINE
8
BLACK
6
CONTINUOUS
10
110.331
20
-95.338
11
110.256
21
-95.2482
0
LINE
8
BLACK
6
CONTINUOUS
10
110.256
20
-95.2482
11
110.211
21
-95.0795
0
LINE
8
BLACK
6
CONTINUOUS
10
110.211
20
-95.0795
11
110.211
21
-94.4045
0
LINE
8
BLACK
6
CONTINUOUS
10
110.211
20
-94.4045
11
110.231
21
-94.2891
0
LINE
8
BLACK
6
CONTINUOUS
10
110.231
20
-94.2891
11
110.29
21
-94.1876
0
LINE
8
BLACK
6
CONTINUOUS
10
110.29
20
-94.1876
11
110.38
21
-94.1122
0
LINE
8
BLACK
6
CONTINUOUS
10
110.38
20
-94.1122
11
110.548
21
-94.067
0
LINE
8
BLACK
6
CONTINUOUS
10
110.548
20
-94.067
11
111.323
21
-94.067
0
LINE
8
BLACK
6
CONTINUOUS
10
111.323
20
-94.067
11
111.439
21
-94.0874
0
LINE
8
BLACK
6
CONTINUOUS
10
113.189
20
-94.0874
11
113.29
21
-94.146
0
LINE
8
BLACK
6
CONTINUOUS
10
113.29
20
-94.146
11
113.366
21
-94.2357
0
LINE
8
BLACK
6
CONTINUOUS
10
113.366
20
-94.2357
11
113.411
21
-94.4045
0
LINE
8
BLACK
6
CONTINUOUS
10
113.411
20
-94.4045
11
113.411
21
-95.0795
0
LINE
8
BLACK
6
CONTINUOUS
10
113.411
20
-95.0795
11
113.39
21
-95.1949
0
LINE
8
BLACK
6
CONTINUOUS
10
113.39
20
-95.1949
11
113.332
21
-95.2964
0
LINE
8
BLACK
6
CONTINUOUS
10
113.332
20
-95.2964
11
113.242
21
-95.3718
0
LINE
8
BLACK
6
CONTINUOUS
10
113.242
20
-95.3718
11
113.073
21
-95.417
0
LINE
8
BLACK
6
CONTINUOUS
10
113.073
20
-95.417
11
112.298
21
-95.417
0
LINE
8
BLACK
6
CONTINUOUS
10
112.298
20
-95.417
11
112.183
21
-95.3966
0
LINE
8
BLACK
6
CONTINUOUS
10
112.183
20
-95.3966
11
112.081
21
-95.338
0
LINE
8
BLACK
6
CONTINUOUS
10
112.081
20
-95.338
11
112.006
21
-95.2482
0
LINE
8
BLACK
6
CONTINUOUS
10
112.006
20
-95.2482
11
111.961
21
-95.0795
0
LINE
8
BLACK
6
CONTINUOUS
10
111.961
20
-95.0795
11
111.961
21
-94.4045
0
LINE
8
BLACK
6
CONTINUOUS
10
111.961
20
-94.4045
11
111.981
21
-94.2891
0
LINE
8
BLACK
6
CONTINUOUS
10
111.981
20
-94.2891
11
112.04
21
-94.1876
0
LINE
8
BLACK
6
CONTINUOUS
10
112.04
20
-94.1876
11
112.13
21
-94.1122
0
LINE
8
BLACK
6
CONTINUOUS
10
112.13
20
-94.1122
11
112.298
21
-94.067
0
LINE
8
BLACK
6
CONTINUOUS
10
112.298
20
-94.067
11
113.073
21
-94.067
0
LINE
8
BLACK
6
CONTINUOUS
10
113.073
20
-94.067
11
113.189
21
-94.0874
0
LINE
8
BLACK
6
CONTINUOUS
10
145.129
20
-93.0351
11
145.48
21
-93.2379
0
LINE
8
BLACK
6
CONTINUOUS
10
145.48
20
-93.2379
11
145.74
21
-93.5485
0
LINE
8
BLACK
6
CONTINUOUS
10
145.74
20
-93.5485
11
145.879
21
-93.9296
0
LINE
8
BLACK
6
CONTINUOUS
10
145.879
20
-93.9296
11
145.879
21
-94.3352
0
LINE
8
BLACK
6
CONTINUOUS
10
145.879
20
-94.3352
11
145.74
21
-94.7163
0
LINE
8
BLACK
6
CONTINUOUS
10
145.74
20
-94.7163
11
145.48
21
-95.0269
0
LINE
8
BLACK
6
CONTINUOUS
10
145.48
20
-95.0269
11
145.129
21
-95.2297
0
LINE
8
BLACK
6
CONTINUOUS
10
145.129
20
-95.2297
11
144.729
21
-95.3001
0
LINE
8
BLACK
6
CONTINUOUS
10
144.729
20
-95.3001
11
144.33
21
-95.2297
0
LINE
8
BLACK
6
CONTINUOUS
10
144.33
20
-95.2297
11
143.979
21
-95.0269
0
LINE
8
BLACK
6
CONTINUOUS
10
143.979
20
-95.0269
11
143.718
21
-94.7163
0
LINE
8
BLACK
6
CONTINUOUS
10
143.718
20
-94.7163
11
143.579
21
-94.3352
0
LINE
8
BLACK
6
CONTINUOUS
10
143.579
20
-94.3352
11
143.579
21
-93.9296
0
LINE
8
BLACK
6
CONTINUOUS
10
143.579
20
-93.9296
11
143.718
21
-93.5485
0
LINE
8
BLACK
6
CONTINUOUS
10
143.718
20
-93.5485
11
143.979
21
-93.2379
0
LINE
8
BLACK
6
CONTINUOUS
10
143.979
20
-93.2379
11
144.33
21
-93.0351
0
LINE
8
BLACK
6
CONTINUOUS
10
144.33
20
-93.0351
11
144.729
21
-92.9647
0
LINE
8
BLACK
6
CONTINUOUS
10
144.729
20
-92.9647
11
145.129
21
-93.0351
0
LINE
8
BLACK
6
CONTINUOUS
10
129.889
20
-93.0351
11
130.24
21
-93.2379
0
LINE
8
BLACK
6
CONTINUOUS
10
130.24
20
-93.2379
11
130.5
21
-93.5485
0
LINE
8
BLACK
6
CONTINUOUS
10
130.5
20
-93.5485
11
130.639
21
-93.9296
0
LINE
8
BLACK
6
CONTINUOUS
10
130.639
20
-93.9296
11
130.639
21
-94.3352
0
LINE
8
BLACK
6
CONTINUOUS
10
130.639
20
-94.3352
11
130.5
21
-94.7163
0
LINE
8
BLACK
6
CONTINUOUS
10
130.5
20
-94.7163
11
130.24
21
-95.0269
0
LINE
8
BLACK
6
CONTINUOUS
10
130.24
20
-95.0269
11
129.889
21
-95.2297
0
LINE
8
BLACK
6
CONTINUOUS
10
129.889
20
-95.2297
11
129.489
21
-95.3001
0
LINE
8
BLACK
6
CONTINUOUS
10
129.489
20
-95.3001
11
129.09
21
-95.2297
0
LINE
8
BLACK
6
CONTINUOUS
10
129.09
20
-95.2297
11
128.739
21
-95.0269
0
LINE
8
BLACK
6
CONTINUOUS
10
128.739
20
-95.0269
11
128.478
21
-94.7163
0
LINE
8
BLACK
6
CONTINUOUS
10
128.478
20
-94.7163
11
128.339
21
-94.3352
0
LINE
8
BLACK
6
CONTINUOUS
10
128.339
20
-94.3352
11
128.339
21
-93.9296
0
LINE
8
BLACK
6
CONTINUOUS
10
128.339
20
-93.9296
11
128.478
21
-93.5485
0
LINE
8
BLACK
6
CONTINUOUS
10
128.478
20
-93.5485
11
128.739
21
-93.2379
0
LINE
8
BLACK
6
CONTINUOUS
10
128.739
20
-93.2379
11
129.09
21
-93.0351
0
LINE
8
BLACK
6
CONTINUOUS
10
129.09
20
-93.0351
11
129.489
21
-92.9647
0
LINE
8
BLACK
6
CONTINUOUS
10
129.489
20
-92.9647
11
129.889
21
-93.0351
0
LINE
8
BLACK
6
CONTINUOUS
10
129.889
20
-90.4951
11
130.24
21
-90.6979
0
LINE
8
BLACK
6
CONTINUOUS
10
130.24
20
-90.6979
11
130.5
21
-91.0085
0
LINE
8
BLACK
6
CONTINUOUS
10
130.5
20
-91.0085
11
130.639
21
-91.3896
0
LINE
8
BLACK
6
CONTINUOUS
10
130.639
20
-91.3896
11
130.639
21
-91.7952
0
LINE
8
BLACK
6
CONTINUOUS
10
130.639
20
-91.7952
11
130.5
21
-92.1763
0
LINE
8
BLACK
6
CONTINUOUS
10
130.5
20
-92.1763
11
130.24
21
-92.4869
0
LINE
8
BLACK
6
CONTINUOUS
10
130.24
20
-92.4869
11
129.889
21
-92.6897
0
LINE
8
BLACK
6
CONTINUOUS
10
129.889
20
-92.6897
11
129.489
21
-92.7601
0
LINE
8
BLACK
6
CONTINUOUS
10
129.489
20
-92.7601
11
129.09
21
-92.6897
0
LINE
8
BLACK
6
CONTINUOUS
10
129.09
20
-92.6897
11
128.739
21
-92.4869
0
LINE
8
BLACK
6
CONTINUOUS
10
128.739
20
-92.4869
11
128.478
21
-92.1763
0
LINE
8
BLACK
6
CONTINUOUS
10
128.478
20
-92.1763
11
128.339
21
-91.7952
0
LINE
8
BLACK
6
CONTINUOUS
10
128.339
20
-91.7952
11
128.339
21
-91.3896
0
LINE
8
BLACK
6
CONTINUOUS
10
128.339
20
-91.3896
11
128.478
21
-91.0085
0
LINE
8
BLACK
6
CONTINUOUS
10
128.478
20
-91.0085
11
128.739
21
-90.6979
0
LINE
8
BLACK
6
CONTINUOUS
10
128.739
20
-90.6979
11
129.09
21
-90.4951
0
LINE
8
BLACK
6
CONTINUOUS
10
129.09
20
-90.4951
11
129.489
21
-90.4247
0
LINE
8
BLACK
6
CONTINUOUS
10
129.489
20
-90.4247
11
129.889
21
-90.4951
0
LINE
8
BLACK
6
CONTINUOUS
10
145.129
20
-90.4951
11
145.48
21
-90.6979
0
LINE
8
BLACK
6
CONTINUOUS
10
145.48
20
-90.6979
11
145.74
21
-91.0085
0
LINE
8
BLACK
6
CONTINUOUS
10
145.74
20
-91.0085
11
145.879
21
-91.3896
0
LINE
8
BLACK
6
CONTINUOUS
10
145.879
20
-91.3896
11
145.879
21
-91.7952
0
LINE
8
BLACK
6
CONTINUOUS
10
145.879
20
-91.7952
11
145.74
21
-92.1763
0
LINE
8
BLACK
6
CONTINUOUS
10
145.74
20
-92.1763
11
145.48
21
-92.4869
0
LINE
8
BLACK
6
CONTINUOUS
10
145.48
20
-92.4869
11
145.129
21
-92.6897
0
LINE
8
BLACK
6
CONTINUOUS
10
145.129
20
-92.6897
11
144.729
21
-92.7601
0
LINE
8
BLACK
6
CONTINUOUS
10
144.729
20
-92.7601
11
144.33
21
-92.6897
0
LINE
8
BLACK
6
CONTINUOUS
10
144.33
20
-92.6897
11
143.979
21
-92.4869
0
LINE
8
BLACK
6
CONTINUOUS
10
143.979
20
-92.4869
11
143.718
21
-92.1763
0
LINE
8
BLACK
6
CONTINUOUS
10
143.718
20
-92.1763
11
143.579
21
-91.7952
0
LINE
8
BLACK
6
CONTINUOUS
10
143.579
20
-91.7952
11
143.579
21
-91.3896
0
LINE
8
BLACK
6
CONTINUOUS
10
143.579
20
-91.3896
11
143.718
21
-91.0085
0
LINE
8
BLACK
6
CONTINUOUS
10
143.718
20
-91.0085
11
143.979
21
-90.6979
0
LINE
8
BLACK
6
CONTINUOUS
10
143.979
20
-90.6979
11
144.33
21
-90.4951
0
LINE
8
BLACK
6
CONTINUOUS
10
144.33
20
-90.4951
11
144.729
21
-90.4247
0
LINE
8
BLACK
6
CONTINUOUS
10
144.729
20
-90.4247
11
145.129
21
-90.4951
0
LINE
8
BLACK
6
CONTINUOUS
10
155.431
20
-91.9038
11
153.331
21
-91.9038
0
LINE
8
BLACK
6
CONTINUOUS
10
153.331
20
-91.9038
11
153.331
21
-89.5538
0
LINE
8
BLACK
6
CONTINUOUS
10
153.331
20
-89.5538
11
155.431
21
-89.5538
0
LINE
8
BLACK
6
CONTINUOUS
10
155.431
20
-89.5538
11
155.431
21
-91.9038
0
LINE
8
BLACK
6
CONTINUOUS
10
162.414
20
-89.6804
11
162.698
21
-89.9185
0
LINE
8
BLACK
6
CONTINUOUS
10
162.698
20
-89.9185
11
162.883
21
-90.2391
0
LINE
8
BLACK
6
CONTINUOUS
10
162.883
20
-90.2391
11
162.931
21
-90.5119
0
LINE
8
BLACK
6
CONTINUOUS
10
162.931
20
-90.5119
11
162.931
21
-90.9457
0
LINE
8
BLACK
6
CONTINUOUS
10
162.931
20
-90.9457
11
162.883
21
-91.2185
0
LINE
8
BLACK
6
CONTINUOUS
10
162.883
20
-91.2185
11
162.698
21
-91.5391
0
LINE
8
BLACK
6
CONTINUOUS
10
162.698
20
-91.5391
11
162.414
21
-91.7772
0
LINE
8
BLACK
6
CONTINUOUS
10
162.414
20
-91.7772
11
162.066
21
-91.9038
0
LINE
8
BLACK
6
CONTINUOUS
10
162.066
20
-91.9038
11
161.696
21
-91.9038
0
LINE
8
BLACK
6
CONTINUOUS
10
161.696
20
-91.9038
11
161.348
21
-91.7772
0
LINE
8
BLACK
6
CONTINUOUS
10
161.348
20
-91.7772
11
161.064
21
-91.5391
0
LINE
8
BLACK
6
CONTINUOUS
10
161.064
20
-91.5391
11
160.879
21
-91.2185
0
LINE
8
BLACK
6
CONTINUOUS
10
160.879
20
-91.2185
11
160.831
21
-90.9457
0
LINE
8
BLACK
6
CONTINUOUS
10
160.831
20
-90.9457
11
160.831
21
-90.5119
0
LINE
8
BLACK
6
CONTINUOUS
10
160.831
20
-90.5119
11
160.879
21
-90.2391
0
LINE
8
BLACK
6
CONTINUOUS
10
160.879
20
-90.2391
11
161.064
21
-89.9185
0
LINE
8
BLACK
6
CONTINUOUS
10
161.064
20
-89.9185
11
161.348
21
-89.6804
0
LINE
8
BLACK
6
CONTINUOUS
10
161.348
20
-89.6804
11
161.696
21
-89.5538
0
LINE
8
BLACK
6
CONTINUOUS
10
161.696
20
-89.5538
11
162.066
21
-89.5538
0
LINE
8
BLACK
6
CONTINUOUS
10
162.066
20
-89.5538
11
162.414
21
-89.6804
0
LINE
8
BLACK
6
CONTINUOUS
10
159.914
20
-89.6804
11
160.198
21
-89.9185
0
LINE
8
BLACK
6
CONTINUOUS
10
160.198
20
-89.9185
11
160.383
21
-90.2391
0
LINE
8
BLACK
6
CONTINUOUS
10
160.383
20
-90.2391
11
160.431
21
-90.5119
0
LINE
8
BLACK
6
CONTINUOUS
10
160.431
20
-90.5119
11
160.431
21
-90.9457
0
LINE
8
BLACK
6
CONTINUOUS
10
160.431
20
-90.9457
11
160.383
21
-91.2185
0
LINE
8
BLACK
6
CONTINUOUS
10
160.383
20
-91.2185
11
160.198
21
-91.5391
0
LINE
8
BLACK
6
CONTINUOUS
10
160.198
20
-91.5391
11
159.914
21
-91.7772
0
LINE
8
BLACK
6
CONTINUOUS
10
159.914
20
-91.7772
11
159.566
21
-91.9038
0
LINE
8
BLACK
6
CONTINUOUS
10
159.566
20
-91.9038
11
159.196
21
-91.9038
0
LINE
8
BLACK
6
CONTINUOUS
10
159.196
20
-91.9038
11
158.848
21
-91.7772
0
LINE
8
BLACK
6
CONTINUOUS
10
158.848
20
-91.7772
11
158.564
21
-91.5391
0
LINE
8
BLACK
6
CONTINUOUS
10
158.564
20
-91.5391
11
158.379
21
-91.2185
0
LINE
8
BLACK
6
CONTINUOUS
10
158.379
20
-91.2185
11
158.331
21
-90.9457
0
LINE
8
BLACK
6
CONTINUOUS
10
158.331
20
-90.9457
11
158.331
21
-90.5119
0
LINE
8
BLACK
6
CONTINUOUS
10
158.331
20
-90.5119
11
158.379
21
-90.2391
0
LINE
8
BLACK
6
CONTINUOUS
10
158.379
20
-90.2391
11
158.564
21
-89.9185
0
LINE
8
BLACK
6
CONTINUOUS
10
158.564
20
-89.9185
11
158.848
21
-89.6804
0
LINE
8
BLACK
6
CONTINUOUS
10
158.848
20
-89.6804
11
159.196
21
-89.5538
0
LINE
8
BLACK
6
CONTINUOUS
10
159.196
20
-89.5538
11
159.566
21
-89.5538
0
LINE
8
BLACK
6
CONTINUOUS
10
159.566
20
-89.5538
11
159.914
21
-89.6804
0
LINE
8
BLACK
6
CONTINUOUS
10
157.414
20
-89.6804
11
157.698
21
-89.9185
0
LINE
8
BLACK
6
CONTINUOUS
10
157.698
20
-89.9185
11
157.883
21
-90.2391
0
LINE
8
BLACK
6
CONTINUOUS
10
157.883
20
-90.2391
11
157.931
21
-90.5119
0
LINE
8
BLACK
6
CONTINUOUS
10
157.931
20
-90.5119
11
157.931
21
-90.9457
0
LINE
8
BLACK
6
CONTINUOUS
10
157.931
20
-90.9457
11
157.883
21
-91.2185
0
LINE
8
BLACK
6
CONTINUOUS
10
157.883
20
-91.2185
11
157.698
21
-91.5391
0
LINE
8
BLACK
6
CONTINUOUS
10
157.698
20
-91.5391
11
157.414
21
-91.7772
0
LINE
8
BLACK
6
CONTINUOUS
10
157.414
20
-91.7772
11
157.066
21
-91.9038
0
LINE
8
BLACK
6
CONTINUOUS
10
157.066
20
-91.9038
11
156.696
21
-91.9038
0
LINE
8
BLACK
6
CONTINUOUS
10
156.696
20
-91.9038
11
156.348
21
-91.7772
0
LINE
8
BLACK
6
CONTINUOUS
10
156.348
20
-91.7772
11
156.064
21
-91.5391
0
LINE
8
BLACK
6
CONTINUOUS
10
156.064
20
-91.5391
11
155.879
21
-91.2185
0
LINE
8
BLACK
6
CONTINUOUS
10
155.879
20
-91.2185
11
155.831
21
-90.9457
0
LINE
8
BLACK
6
CONTINUOUS
10
155.831
20
-90.9457
11
155.831
21
-90.5119
0
LINE
8
BLACK
6
CONTINUOUS
10
155.831
20
-90.5119
11
155.879
21
-90.2391
0
LINE
8
BLACK
6
CONTINUOUS
10
155.879
20
-90.2391
11
156.064
21
-89.9185
0
LINE
8
BLACK
6
CONTINUOUS
10
156.064
20
-89.9185
11
156.348
21
-89.6804
0
LINE
8
BLACK
6
CONTINUOUS
10
156.348
20
-89.6804
11
156.696
21
-89.5538
0
LINE
8
BLACK
6
CONTINUOUS
10
156.696
20
-89.5538
11
157.066
21
-89.5538
0
LINE
8
BLACK
6
CONTINUOUS
10
157.066
20
-89.5538
11
157.414
21
-89.6804
0
LINE
8
BLACK
6
CONTINUOUS
10
137.166
20
-89.8202
11
137.268
21
-89.8788
0
LINE
8
BLACK
6
CONTINUOUS
10
137.268
20
-89.8788
11
137.343
21
-89.9685
0
LINE
8
BLACK
6
CONTINUOUS
10
137.343
20
-89.9685
11
137.388
21
-90.1373
0
LINE
8
BLACK
6
CONTINUOUS
10
137.388
20
-90.1373
11
137.388
21
-90.8123
0
LINE
8
BLACK
6
CONTINUOUS
10
137.388
20
-90.8123
11
137.368
21
-90.9277
0
LINE
8
BLACK
6
CONTINUOUS
10
137.368
20
-90.9277
11
137.309
21
-91.0292
0
LINE
8
BLACK
6
CONTINUOUS
10
137.309
20
-91.0292
11
137.22
21
-91.1046
0
LINE
8
BLACK
6
CONTINUOUS
10
137.22
20
-91.1046
11
137.051
21
-91.1498
0
LINE
8
BLACK
6
CONTINUOUS
10
137.051
20
-91.1498
11
136.276
21
-91.1498
0
LINE
8
BLACK
6
CONTINUOUS
10
136.276
20
-91.1498
11
136.16
21
-91.1294
0
LINE
8
BLACK
6
CONTINUOUS
10
136.16
20
-91.1294
11
136.059
21
-91.0708
0
LINE
8
BLACK
6
CONTINUOUS
10
136.059
20
-91.0708
11
135.984
21
-90.981
0
LINE
8
BLACK
6
CONTINUOUS
10
135.984
20
-90.981
11
135.938
21
-90.8123
0
LINE
8
BLACK
6
CONTINUOUS
10
135.938
20
-90.8123
11
135.938
21
-90.1373
0
LINE
8
BLACK
6
CONTINUOUS
10
135.938
20
-90.1373
11
135.959
21
-90.0219
0
LINE
8
BLACK
6
CONTINUOUS
10
135.959
20
-90.0219
11
136.017
21
-89.9204
0
LINE
8
BLACK
6
CONTINUOUS
10
136.017
20
-89.9204
11
136.107
21
-89.845
0
LINE
8
BLACK
6
CONTINUOUS
10
136.107
20
-89.845
11
136.276
21
-89.7998
0
LINE
8
BLACK
6
CONTINUOUS
10
136.276
20
-89.7998
11
137.051
21
-89.7998
0
LINE
8
BLACK
6
CONTINUOUS
10
137.051
20
-89.7998
11
137.166
21
-89.8202
0
LINE
8
BLACK
6
CONTINUOUS
10
135.416
20
-89.8202
11
135.518
21
-89.8788
0
LINE
8
BLACK
6
CONTINUOUS
10
135.518
20
-89.8788
11
135.593
21
-89.9685
0
LINE
8
BLACK
6
CONTINUOUS
10
135.593
20
-89.9685
11
135.638
21
-90.1373
0
LINE
8
BLACK
6
CONTINUOUS
10
135.638
20
-90.1373
11
135.638
21
-90.8123
0
LINE
8
BLACK
6
CONTINUOUS
10
135.638
20
-90.8123
11
135.618
21
-90.9277
0
LINE
8
BLACK
6
CONTINUOUS
10
135.618
20
-90.9277
11
135.559
21
-91.0292
0
LINE
8
BLACK
6
CONTINUOUS
10
135.559
20
-91.0292
11
135.47
21
-91.1046
0
LINE
8
BLACK
6
CONTINUOUS
10
135.47
20
-91.1046
11
135.301
21
-91.1498
0
LINE
8
BLACK
6
CONTINUOUS
10
135.301
20
-91.1498
11
134.526
21
-91.1498
0
LINE
8
BLACK
6
CONTINUOUS
10
134.526
20
-91.1498
11
134.41
21
-91.1294
0
LINE
8
BLACK
6
CONTINUOUS
10
134.41
20
-91.1294
11
134.309
21
-91.0708
0
LINE
8
BLACK
6
CONTINUOUS
10
134.309
20
-91.0708
11
134.234
21
-90.981
0
LINE
8
BLACK
6
CONTINUOUS
10
134.234
20
-90.981
11
134.188
21
-90.8123
0
LINE
8
BLACK
6
CONTINUOUS
10
134.188
20
-90.8123
11
134.188
21
-90.1373
0
LINE
8
BLACK
6
CONTINUOUS
10
134.188
20
-90.1373
11
134.209
21
-90.0219
0
LINE
8
BLACK
6
CONTINUOUS
10
134.209
20
-90.0219
11
134.267
21
-89.9204
0
LINE
8
BLACK
6
CONTINUOUS
10
134.267
20
-89.9204
11
134.357
21
-89.845
0
LINE
8
BLACK
6
CONTINUOUS
10
134.357
20
-89.845
11
134.526
21
-89.7998
0
LINE
8
BLACK
6
CONTINUOUS
10
134.526
20
-89.7998
11
135.301
21
-89.7998
0
LINE
8
BLACK
6
CONTINUOUS
10
135.301
20
-89.7998
11
135.416
21
-89.8202
0
LINE
8
BLACK
6
CONTINUOUS
10
129.889
20
-87.9551
11
130.24
21
-88.1579
0
LINE
8
BLACK
6
CONTINUOUS
10
130.24
20
-88.1579
11
130.5
21
-88.4685
0
LINE
8
BLACK
6
CONTINUOUS
10
130.5
20
-88.4685
11
130.639
21
-88.8496
0
LINE
8
BLACK
6
CONTINUOUS
10
130.639
20
-88.8496
11
130.639
21
-89.2552
0
LINE
8
BLACK
6
CONTINUOUS
10
130.639
20
-89.2552
11
130.5
21
-89.6363
0
LINE
8
BLACK
6
CONTINUOUS
10
130.5
20
-89.6363
11
130.24
21
-89.9469
0
LINE
8
BLACK
6
CONTINUOUS
10
130.24
20
-89.9469
11
129.889
21
-90.1497
0
LINE
8
BLACK
6
CONTINUOUS
10
129.889
20
-90.1497
11
129.489
21
-90.2201
0
LINE
8
BLACK
6
CONTINUOUS
10
129.489
20
-90.2201
11
129.09
21
-90.1497
0
LINE
8
BLACK
6
CONTINUOUS
10
129.09
20
-90.1497
11
128.739
21
-89.9469
0
LINE
8
BLACK
6
CONTINUOUS
10
128.739
20
-89.9469
11
128.478
21
-89.6363
0
LINE
8
BLACK
6
CONTINUOUS
10
128.478
20
-89.6363
11
128.339
21
-89.2552
0
LINE
8
BLACK
6
CONTINUOUS
10
128.339
20
-89.2552
11
128.339
21
-88.8496
0
LINE
8
BLACK
6
CONTINUOUS
10
128.339
20
-88.8496
11
128.478
21
-88.4685
0
LINE
8
BLACK
6
CONTINUOUS
10
128.478
20
-88.4685
11
128.739
21
-88.1579
0
LINE
8
BLACK
6
CONTINUOUS
10
128.739
20
-88.1579
11
129.09
21
-87.9551
0
LINE
8
BLACK
6
CONTINUOUS
10
129.09
20
-87.9551
11
129.489
21
-87.8847
0
LINE
8
BLACK
6
CONTINUOUS
10
129.489
20
-87.8847
11
129.889
21
-87.9551
0
LINE
8
BLACK
6
CONTINUOUS
10
145.129
20
-87.9551
11
145.48
21
-88.1579
0
LINE
8
BLACK
6
CONTINUOUS
10
145.48
20
-88.1579
11
145.74
21
-88.4685
0
LINE
8
BLACK
6
CONTINUOUS
10
145.74
20
-88.4685
11
145.879
21
-88.8496
0
LINE
8
BLACK
6
CONTINUOUS
10
145.879
20
-88.8496
11
145.879
21
-89.2552
0
LINE
8
BLACK
6
CONTINUOUS
10
145.879
20
-89.2552
11
145.74
21
-89.6363
0
LINE
8
BLACK
6
CONTINUOUS
10
145.74
20
-89.6363
11
145.48
21
-89.9469
0
LINE
8
BLACK
6
CONTINUOUS
10
145.48
20
-89.9469
11
145.129
21
-90.1497
0
LINE
8
BLACK
6
CONTINUOUS
10
145.129
20
-90.1497
11
144.729
21
-90.2201
0
LINE
8
BLACK
6
CONTINUOUS
10
144.729
20
-90.2201
11
144.33
21
-90.1497
0
LINE
8
BLACK
6
CONTINUOUS
10
144.33
20
-90.1497
11
143.979
21
-89.9469
0
LINE
8
BLACK
6
CONTINUOUS
10
143.979
20
-89.9469
11
143.718
21
-89.6363
0
LINE
8
BLACK
6
CONTINUOUS
10
143.718
20
-89.6363
11
143.579
21
-89.2552
0
LINE
8
BLACK
6
CONTINUOUS
10
143.579
20
-89.2552
11
143.579
21
-88.8496
0
LINE
8
BLACK
6
CONTINUOUS
10
143.579
20
-88.8496
11
143.718
21
-88.4685
0
LINE
8
BLACK
6
CONTINUOUS
10
143.718
20
-88.4685
11
143.979
21
-88.1579
0
LINE
8
BLACK
6
CONTINUOUS
10
143.979
20
-88.1579
11
144.33
21
-87.9551
0
LINE
8
BLACK
6
CONTINUOUS
10
144.33
20
-87.9551
11
144.729
21
-87.8847
0
LINE
8
BLACK
6
CONTINUOUS
10
144.729
20
-87.8847
11
145.129
21
-87.9551
0
LINE
8
BLACK
6
CONTINUOUS
10
116.569
20
-90.075
11
114.469
21
-90.075
0
LINE
8
BLACK
6
CONTINUOUS
10
114.469
20
-90.075
11
114.469
21
-87.725
0
LINE
8
BLACK
6
CONTINUOUS
10
114.469
20
-87.725
11
116.569
21
-87.725
0
LINE
8
BLACK
6
CONTINUOUS
10
116.569
20
-87.725
11
116.569
21
-90.075
0
LINE
8
BLACK
6
CONTINUOUS
10
123.552
20
-87.8516
11
123.836
21
-88.0897
0
LINE
8
BLACK
6
CONTINUOUS
10
123.836
20
-88.0897
11
124.021
21
-88.4103
0
LINE
8
BLACK
6
CONTINUOUS
10
124.021
20
-88.4103
11
124.069
21
-88.6831
0
LINE
8
BLACK
6
CONTINUOUS
10
124.069
20
-88.6831
11
124.069
21
-89.1169
0
LINE
8
BLACK
6
CONTINUOUS
10
124.069
20
-89.1169
11
124.021
21
-89.3897
0
LINE
8
BLACK
6
CONTINUOUS
10
124.021
20
-89.3897
11
123.836
21
-89.7103
0
LINE
8
BLACK
6
CONTINUOUS
10
123.836
20
-89.7103
11
123.552
21
-89.9484
0
LINE
8
BLACK
6
CONTINUOUS
10
123.552
20
-89.9484
11
123.204
21
-90.075
0
LINE
8
BLACK
6
CONTINUOUS
10
123.204
20
-90.075
11
122.834
21
-90.075
0
LINE
8
BLACK
6
CONTINUOUS
10
122.834
20
-90.075
11
122.486
21
-89.9484
0
LINE
8
BLACK
6
CONTINUOUS
10
122.486
20
-89.9484
11
122.202
21
-89.7103
0
LINE
8
BLACK
6
CONTINUOUS
10
122.202
20
-89.7103
11
122.017
21
-89.3897
0
LINE
8
BLACK
6
CONTINUOUS
10
122.017
20
-89.3897
11
121.969
21
-89.1169
0
LINE
8
BLACK
6
CONTINUOUS
10
121.969
20
-89.1169
11
121.969
21
-88.6831
0
LINE
8
BLACK
6
CONTINUOUS
10
121.969
20
-88.6831
11
122.017
21
-88.4103
0
LINE
8
BLACK
6
CONTINUOUS
10
122.017
20
-88.4103
11
122.202
21
-88.0897
0
LINE
8
BLACK
6
CONTINUOUS
10
122.202
20
-88.0897
11
122.486
21
-87.8516
0
LINE
8
BLACK
6
CONTINUOUS
10
122.486
20
-87.8516
11
122.834
21
-87.725
0
LINE
8
BLACK
6
CONTINUOUS
10
122.834
20
-87.725
11
123.204
21
-87.725
0
LINE
8
BLACK
6
CONTINUOUS
10
123.204
20
-87.725
11
123.552
21
-87.8516
0
LINE
8
BLACK
6
CONTINUOUS
10
118.552
20
-87.8516
11
118.836
21
-88.0897
0
LINE
8
BLACK
6
CONTINUOUS
10
118.836
20
-88.0897
11
119.021
21
-88.4103
0
LINE
8
BLACK
6
CONTINUOUS
10
119.021
20
-88.4103
11
119.069
21
-88.6831
0
LINE
8
BLACK
6
CONTINUOUS
10
119.069
20
-88.6831
11
119.069
21
-89.1169
0
LINE
8
BLACK
6
CONTINUOUS
10
119.069
20
-89.1169
11
119.021
21
-89.3897
0
LINE
8
BLACK
6
CONTINUOUS
10
119.021
20
-89.3897
11
118.836
21
-89.7103
0
LINE
8
BLACK
6
CONTINUOUS
10
118.836
20
-89.7103
11
118.552
21
-89.9484
0
LINE
8
BLACK
6
CONTINUOUS
10
118.552
20
-89.9484
11
118.204
21
-90.075
0
LINE
8
BLACK
6
CONTINUOUS
10
118.204
20
-90.075
11
117.834
21
-90.075
0
LINE
8
BLACK
6
CONTINUOUS
10
117.834
20
-90.075
11
117.486
21
-89.9484
0
LINE
8
BLACK
6
CONTINUOUS
10
117.486
20
-89.9484
11
117.202
21
-89.7103
0
LINE
8
BLACK
6
CONTINUOUS
10
117.202
20
-89.7103
11
117.017
21
-89.3897
0
LINE
8
BLACK
6
CONTINUOUS
10
117.017
20
-89.3897
11
116.969
21
-89.1169
0
LINE
8
BLACK
6
CONTINUOUS
10
116.969
20
-89.1169
11
116.969
21
-88.6831
0
LINE
8
BLACK
6
CONTINUOUS
10
116.969
20
-88.6831
11
117.017
21
-88.4103
0
LINE
8
BLACK
6
CONTINUOUS
10
117.017
20
-88.4103
11
117.202
21
-88.0897
0
LINE
8
BLACK
6
CONTINUOUS
10
117.202
20
-88.0897
11
117.486
21
-87.8516
0
LINE
8
BLACK
6
CONTINUOUS
10
117.486
20
-87.8516
11
117.834
21
-87.725
0
LINE
8
BLACK
6
CONTINUOUS
10
117.834
20
-87.725
11
118.204
21
-87.725
0
LINE
8
BLACK
6
CONTINUOUS
10
118.204
20
-87.725
11
118.552
21
-87.8516
0
LINE
8
BLACK
6
CONTINUOUS
10
121.052
20
-87.8516
11
121.336
21
-88.0897
0
LINE
8
BLACK
6
CONTINUOUS
10
121.336
20
-88.0897
11
121.521
21
-88.4103
0
LINE
8
BLACK
6
CONTINUOUS
10
121.521
20
-88.4103
11
121.569
21
-88.6831
0
LINE
8
BLACK
6
CONTINUOUS
10
121.569
20
-88.6831
11
121.569
21
-89.1169
0
LINE
8
BLACK
6
CONTINUOUS
10
121.569
20
-89.1169
11
121.521
21
-89.3897
0
LINE
8
BLACK
6
CONTINUOUS
10
121.521
20
-89.3897
11
121.336
21
-89.7103
0
LINE
8
BLACK
6
CONTINUOUS
10
121.336
20
-89.7103
11
121.052
21
-89.9484
0
LINE
8
BLACK
6
CONTINUOUS
10
121.052
20
-89.9484
11
120.704
21
-90.075
0
LINE
8
BLACK
6
CONTINUOUS
10
120.704
20
-90.075
11
120.334
21
-90.075
0
LINE
8
BLACK
6
CONTINUOUS
10
120.334
20
-90.075
11
119.986
21
-89.9484
0
LINE
8
BLACK
6
CONTINUOUS
10
119.986
20
-89.9484
11
119.702
21
-89.7103
0
LINE
8
BLACK
6
CONTINUOUS
10
119.702
20
-89.7103
11
119.517
21
-89.3897
0
LINE
8
BLACK
6
CONTINUOUS
10
119.517
20
-89.3897
11
119.469
21
-89.1169
0
LINE
8
BLACK
6
CONTINUOUS
10
119.469
20
-89.1169
11
119.469
21
-88.6831
0
LINE
8
BLACK
6
CONTINUOUS
10
119.469
20
-88.6831
11
119.517
21
-88.4103
0
LINE
8
BLACK
6
CONTINUOUS
10
119.517
20
-88.4103
11
119.702
21
-88.0897
0
LINE
8
BLACK
6
CONTINUOUS
10
119.702
20
-88.0897
11
119.986
21
-87.8516
0
LINE
8
BLACK
6
CONTINUOUS
10
119.986
20
-87.8516
11
120.334
21
-87.725
0
LINE
8
BLACK
6
CONTINUOUS
10
120.334
20
-87.725
11
120.704
21
-87.725
0
LINE
8
BLACK
6
CONTINUOUS
10
120.704
20
-87.725
11
121.052
21
-87.8516
0
LINE
8
BLACK
6
CONTINUOUS
10
135.416
20
-87.585
11
135.518
21
-87.6436
0
LINE
8
BLACK
6
CONTINUOUS
10
135.518
20
-87.6436
11
135.593
21
-87.7334
0
LINE
8
BLACK
6
CONTINUOUS
10
135.593
20
-87.7334
11
135.638
21
-87.9021
0
LINE
8
BLACK
6
CONTINUOUS
10
135.638
20
-87.9021
11
135.638
21
-88.5771
0
LINE
8
BLACK
6
CONTINUOUS
10
135.638
20
-88.5771
11
135.618
21
-88.6925
0
LINE
8
BLACK
6
CONTINUOUS
10
135.618
20
-88.6925
11
135.559
21
-88.794
0
LINE
8
BLACK
6
CONTINUOUS
10
135.559
20
-88.794
11
135.47
21
-88.8694
0
LINE
8
BLACK
6
CONTINUOUS
10
135.47
20
-88.8694
11
135.301
21
-88.9146
0
LINE
8
BLACK
6
CONTINUOUS
10
135.301
20
-88.9146
11
134.526
21
-88.9146
0
LINE
8
BLACK
6
CONTINUOUS
10
134.526
20
-88.9146
11
134.41
21
-88.8942
0
LINE
8
BLACK
6
CONTINUOUS
10
134.41
20
-88.8942
11
134.309
21
-88.8356
0
LINE
8
BLACK
6
CONTINUOUS
10
134.309
20
-88.8356
11
134.234
21
-88.7458
0
LINE
8
BLACK
6
CONTINUOUS
10
134.234
20
-88.7458
11
134.188
21
-88.5771
0
LINE
8
BLACK
6
CONTINUOUS
10
134.188
20
-88.5771
11
134.188
21
-87.9021
0
LINE
8
BLACK
6
CONTINUOUS
10
134.188
20
-87.9021
11
134.209
21
-87.7867
0
LINE
8
BLACK
6
CONTINUOUS
10
134.209
20
-87.7867
11
134.267
21
-87.6852
0
LINE
8
BLACK
6
CONTINUOUS
10
134.267
20
-87.6852
11
134.357
21
-87.6098
0
LINE
8
BLACK
6
CONTINUOUS
10
134.357
20
-87.6098
11
134.526
21
-87.5646
0
LINE
8
BLACK
6
CONTINUOUS
10
134.526
20
-87.5646
11
135.301
21
-87.5646
0
LINE
8
BLACK
6
CONTINUOUS
10
135.301
20
-87.5646
11
135.416
21
-87.585
0
LINE
8
BLACK
6
CONTINUOUS
10
137.166
20
-87.585
11
137.268
21
-87.6436
0
LINE
8
BLACK
6
CONTINUOUS
10
137.268
20
-87.6436
11
137.343
21
-87.7334
0
LINE
8
BLACK
6
CONTINUOUS
10
137.343
20
-87.7334
11
137.388
21
-87.9021
0
LINE
8
BLACK
6
CONTINUOUS
10
137.388
20
-87.9021
11
137.388
21
-88.5771
0
LINE
8
BLACK
6
CONTINUOUS
10
137.388
20
-88.5771
11
137.368
21
-88.6925
0
LINE
8
BLACK
6
CONTINUOUS
10
137.368
20
-88.6925
11
137.309
21
-88.794
0
LINE
8
BLACK
6
CONTINUOUS
10
137.309
20
-88.794
11
137.22
21
-88.8694
0
LINE
8
BLACK
6
CONTINUOUS
10
137.22
20
-88.8694
11
137.051
21
-88.9146
0
LINE
8
BLACK
6
CONTINUOUS
10
137.051
20
-88.9146
11
136.276
21
-88.9146
0
LINE
8
BLACK
6
CONTINUOUS
10
136.276
20
-88.9146
11
136.16
21
-88.8942
0
LINE
8
BLACK
6
CONTINUOUS
10
136.16
20
-88.8942
11
136.059
21
-88.8356
0
LINE
8
BLACK
6
CONTINUOUS
10
136.059
20
-88.8356
11
135.984
21
-88.7458
0
LINE
8
BLACK
6
CONTINUOUS
10
135.984
20
-88.7458
11
135.938
21
-88.5771
0
LINE
8
BLACK
6
CONTINUOUS
10
135.938
20
-88.5771
11
135.938
21
-87.9021
0
LINE
8
BLACK
6
CONTINUOUS
10
135.938
20
-87.9021
11
135.959
21
-87.7867
0
LINE
8
BLACK
6
CONTINUOUS
10
135.959
20
-87.7867
11
136.017
21
-87.6852
0
LINE
8
BLACK
6
CONTINUOUS
10
136.017
20
-87.6852
11
136.107
21
-87.6098
0
LINE
8
BLACK
6
CONTINUOUS
10
136.107
20
-87.6098
11
136.276
21
-87.5646
0
LINE
8
BLACK
6
CONTINUOUS
10
136.276
20
-87.5646
11
137.051
21
-87.5646
0
LINE
8
BLACK
6
CONTINUOUS
10
137.051
20
-87.5646
11
137.166
21
-87.585
0
LINE
8
BLACK
6
CONTINUOUS
10
145.129
20
-85.4151
11
145.48
21
-85.6179
0
LINE
8
BLACK
6
CONTINUOUS
10
145.48
20
-85.6179
11
145.74
21
-85.9285
0
LINE
8
BLACK
6
CONTINUOUS
10
145.74
20
-85.9285
11
145.879
21
-86.3096
0
LINE
8
BLACK
6
CONTINUOUS
10
145.879
20
-86.3096
11
145.879
21
-86.7152
0
LINE
8
BLACK
6
CONTINUOUS
10
145.879
20
-86.7152
11
145.74
21
-87.0963
0
LINE
8
BLACK
6
CONTINUOUS
10
145.74
20
-87.0963
11
145.48
21
-87.4069
0
LINE
8
BLACK
6
CONTINUOUS
10
145.48
20
-87.4069
11
145.129
21
-87.6097
0
LINE
8
BLACK
6
CONTINUOUS
10
145.129
20
-87.6097
11
144.729
21
-87.6801
0
LINE
8
BLACK
6
CONTINUOUS
10
144.729
20
-87.6801
11
144.33
21
-87.6097
0
LINE
8
BLACK
6
CONTINUOUS
10
144.33
20
-87.6097
11
143.979
21
-87.4069
0
LINE
8
BLACK
6
CONTINUOUS
10
143.979
20
-87.4069
11
143.718
21
-87.0963
0
LINE
8
BLACK
6
CONTINUOUS
10
143.718
20
-87.0963
11
143.579
21
-86.7152
0
LINE
8
BLACK
6
CONTINUOUS
10
143.579
20
-86.7152
11
143.579
21
-86.3096
0
LINE
8
BLACK
6
CONTINUOUS
10
143.579
20
-86.3096
11
143.718
21
-85.9285
0
LINE
8
BLACK
6
CONTINUOUS
10
143.718
20
-85.9285
11
143.979
21
-85.6179
0
LINE
8
BLACK
6
CONTINUOUS
10
143.979
20
-85.6179
11
144.33
21
-85.4151
0
LINE
8
BLACK
6
CONTINUOUS
10
144.33
20
-85.4151
11
144.729
21
-85.3447
0
LINE
8
BLACK
6
CONTINUOUS
10
144.729
20
-85.3447
11
145.129
21
-85.4151
0
LINE
8
BLACK
6
CONTINUOUS
10
129.889
20
-85.4151
11
130.24
21
-85.6179
0
LINE
8
BLACK
6
CONTINUOUS
10
130.24
20
-85.6179
11
130.5
21
-85.9285
0
LINE
8
BLACK
6
CONTINUOUS
10
130.5
20
-85.9285
11
130.639
21
-86.3096
0
LINE
8
BLACK
6
CONTINUOUS
10
130.639
20
-86.3096
11
130.639
21
-86.7152
0
LINE
8
BLACK
6
CONTINUOUS
10
130.639
20
-86.7152
11
130.5
21
-87.0963
0
LINE
8
BLACK
6
CONTINUOUS
10
130.5
20
-87.0963
11
130.24
21
-87.4069
0
LINE
8
BLACK
6
CONTINUOUS
10
130.24
20
-87.4069
11
129.889
21
-87.6097
0
LINE
8
BLACK
6
CONTINUOUS
10
129.889
20
-87.6097
11
129.489
21
-87.6801
0
LINE
8
BLACK
6
CONTINUOUS
10
129.489
20
-87.6801
11
129.09
21
-87.6097
0
LINE
8
BLACK
6
CONTINUOUS
10
129.09
20
-87.6097
11
128.739
21
-87.4069
0
LINE
8
BLACK
6
CONTINUOUS
10
128.739
20
-87.4069
11
128.478
21
-87.0963
0
LINE
8
BLACK
6
CONTINUOUS
10
128.478
20
-87.0963
11
128.339
21
-86.7152
0
LINE
8
BLACK
6
CONTINUOUS
10
128.339
20
-86.7152
11
128.339
21
-86.3096
0
LINE
8
BLACK
6
CONTINUOUS
10
128.339
20
-86.3096
11
128.478
21
-85.9285
0
LINE
8
BLACK
6
CONTINUOUS
10
128.478
20
-85.9285
11
128.739
21
-85.6179
0
LINE
8
BLACK
6
CONTINUOUS
10
128.739
20
-85.6179
11
129.09
21
-85.4151
0
LINE
8
BLACK
6
CONTINUOUS
10
129.09
20
-85.4151
11
129.489
21
-85.3447
0
LINE
8
BLACK
6
CONTINUOUS
10
129.489
20
-85.3447
11
129.889
21
-85.4151
0
LINE
8
BLACK
6
CONTINUOUS
10
137.166
20
-85.3498
11
137.268
21
-85.4084
0
LINE
8
BLACK
6
CONTINUOUS
10
137.268
20
-85.4084
11
137.343
21
-85.4981
0
LINE
8
BLACK
6
CONTINUOUS
10
137.343
20
-85.4981
11
137.388
21
-85.6669
0
LINE
8
BLACK
6
CONTINUOUS
10
137.388
20
-85.6669
11
137.388
21
-86.3419
0
LINE
8
BLACK
6
CONTINUOUS
10
137.388
20
-86.3419
11
137.368
21
-86.4573
0
LINE
8
BLACK
6
CONTINUOUS
10
137.368
20
-86.4573
11
137.309
21
-86.5588
0
LINE
8
BLACK
6
CONTINUOUS
10
137.309
20
-86.5588
11
137.22
21
-86.6342
0
LINE
8
BLACK
6
CONTINUOUS
10
137.22
20
-86.6342
11
137.051
21
-86.6794
0
LINE
8
BLACK
6
CONTINUOUS
10
137.051
20
-86.6794
11
136.276
21
-86.6794
0
LINE
8
BLACK
6
CONTINUOUS
10
136.276
20
-86.6794
11
136.16
21
-86.659
0
LINE
8
BLACK
6
CONTINUOUS
10
136.16
20
-86.659
11
136.059
21
-86.6004
0
LINE
8
BLACK
6
CONTINUOUS
10
136.059
20
-86.6004
11
135.984
21
-86.5106
0
LINE
8
BLACK
6
CONTINUOUS
10
135.984
20
-86.5106
11
135.938
21
-86.3419
0
LINE
8
BLACK
6
CONTINUOUS
10
135.938
20
-86.3419
11
135.938
21
-85.6669
0
LINE
8
BLACK
6
CONTINUOUS
10
135.938
20
-85.6669
11
135.959
21
-85.5515
0
LINE
8
BLACK
6
CONTINUOUS
10
135.959
20
-85.5515
11
136.017
21
-85.45
0
LINE
8
BLACK
6
CONTINUOUS
10
136.017
20
-85.45
11
136.107
21
-85.3746
0
LINE
8
BLACK
6
CONTINUOUS
10
136.107
20
-85.3746
11
136.276
21
-85.3294
0
LINE
8
BLACK
6
CONTINUOUS
10
136.276
20
-85.3294
11
137.051
21
-85.3294
0
LINE
8
BLACK
6
CONTINUOUS
10
137.051
20
-85.3294
11
137.166
21
-85.3498
0
LINE
8
BLACK
6
CONTINUOUS
10
135.416
20
-85.3498
11
135.518
21
-85.4084
0
LINE
8
BLACK
6
CONTINUOUS
10
135.518
20
-85.4084
11
135.593
21
-85.4981
0
LINE
8
BLACK
6
CONTINUOUS
10
135.593
20
-85.4981
11
135.638
21
-85.6669
0
LINE
8
BLACK
6
CONTINUOUS
10
135.638
20
-85.6669
11
135.638
21
-86.3419
0
LINE
8
BLACK
6
CONTINUOUS
10
135.638
20
-86.3419
11
135.618
21
-86.4573
0
LINE
8
BLACK
6
CONTINUOUS
10
135.618
20
-86.4573
11
135.559
21
-86.5588
0
LINE
8
BLACK
6
CONTINUOUS
10
135.559
20
-86.5588
11
135.47
21
-86.6342
0
LINE
8
BLACK
6
CONTINUOUS
10
135.47
20
-86.6342
11
135.301
21
-86.6794
0
LINE
8
BLACK
6
CONTINUOUS
10
135.301
20
-86.6794
11
134.526
21
-86.6794
0
LINE
8
BLACK
6
CONTINUOUS
10
134.526
20
-86.6794
11
134.41
21
-86.659
0
LINE
8
BLACK
6
CONTINUOUS
10
134.41
20
-86.659
11
134.309
21
-86.6004
0
LINE
8
BLACK
6
CONTINUOUS
10
134.309
20
-86.6004
11
134.234
21
-86.5106
0
LINE
8
BLACK
6
CONTINUOUS
10
134.234
20
-86.5106
11
134.188
21
-86.3419
0
LINE
8
BLACK
6
CONTINUOUS
10
134.188
20
-86.3419
11
134.188
21
-85.6669
0
LINE
8
BLACK
6
CONTINUOUS
10
134.188
20
-85.6669
11
134.209
21
-85.5515
0
LINE
8
BLACK
6
CONTINUOUS
10
134.209
20
-85.5515
11
134.267
21
-85.45
0
LINE
8
BLACK
6
CONTINUOUS
10
134.267
20
-85.45
11
134.357
21
-85.3746
0
LINE
8
BLACK
6
CONTINUOUS
10
134.357
20
-85.3746
11
134.526
21
-85.3294
0
LINE
8
BLACK
6
CONTINUOUS
10
134.526
20
-85.3294
11
135.301
21
-85.3294
0
LINE
8
BLACK
6
CONTINUOUS
10
135.301
20
-85.3294
11
135.416
21
-85.3498
0
LINE
8
BLACK
6
CONTINUOUS
10
145.129
20
-82.8751
11
145.48
21
-83.0779
0
LINE
8
BLACK
6
CONTINUOUS
10
145.48
20
-83.0779
11
145.74
21
-83.3885
0
LINE
8
BLACK
6
CONTINUOUS
10
145.74
20
-83.3885
11
145.879
21
-83.7696
0
LINE
8
BLACK
6
CONTINUOUS
10
145.879
20
-83.7696
11
145.879
21
-84.1752
0
LINE
8
BLACK
6
CONTINUOUS
10
145.879
20
-84.1752
11
145.74
21
-84.5563
0
LINE
8
BLACK
6
CONTINUOUS
10
145.74
20
-84.5563
11
145.48
21
-84.8669
0
LINE
8
BLACK
6
CONTINUOUS
10
145.48
20
-84.8669
11
145.129
21
-85.0697
0
LINE
8
BLACK
6
CONTINUOUS
10
145.129
20
-85.0697
11
144.729
21
-85.1401
0
LINE
8
BLACK
6
CONTINUOUS
10
144.729
20
-85.1401
11
144.33
21
-85.0697
0
LINE
8
BLACK
6
CONTINUOUS
10
144.33
20
-85.0697
11
143.979
21
-84.8669
0
LINE
8
BLACK
6
CONTINUOUS
10
143.979
20
-84.8669
11
143.718
21
-84.5563
0
LINE
8
BLACK
6
CONTINUOUS
10
143.718
20
-84.5563
11
143.579
21
-84.1752
0
LINE
8
BLACK
6
CONTINUOUS
10
143.579
20
-84.1752
11
143.579
21
-83.7696
0
LINE
8
BLACK
6
CONTINUOUS
10
143.579
20
-83.7696
11
143.718
21
-83.3885
0
LINE
8
BLACK
6
CONTINUOUS
10
143.718
20
-83.3885
11
143.979
21
-83.0779
0
LINE
8
BLACK
6
CONTINUOUS
10
143.979
20
-83.0779
11
144.33
21
-82.8751
0
LINE
8
BLACK
6
CONTINUOUS
10
144.33
20
-82.8751
11
144.729
21
-82.8047
0
LINE
8
BLACK
6
CONTINUOUS
10
144.729
20
-82.8047
11
145.129
21
-82.8751
0
LINE
8
BLACK
6
CONTINUOUS
10
129.889
20
-82.8751
11
130.24
21
-83.0779
0
LINE
8
BLACK
6
CONTINUOUS
10
130.24
20
-83.0779
11
130.5
21
-83.3885
0
LINE
8
BLACK
6
CONTINUOUS
10
130.5
20
-83.3885
11
130.639
21
-83.7696
0
LINE
8
BLACK
6
CONTINUOUS
10
130.639
20
-83.7696
11
130.639
21
-84.1752
0
LINE
8
BLACK
6
CONTINUOUS
10
130.639
20
-84.1752
11
130.5
21
-84.5563
0
LINE
8
BLACK
6
CONTINUOUS
10
130.5
20
-84.5563
11
130.24
21
-84.8669
0
LINE
8
BLACK
6
CONTINUOUS
10
130.24
20
-84.8669
11
129.889
21
-85.0697
0
LINE
8
BLACK
6
CONTINUOUS
10
129.889
20
-85.0697
11
129.489
21
-85.1401
0
LINE
8
BLACK
6
CONTINUOUS
10
129.489
20
-85.1401
11
129.09
21
-85.0697
0
LINE
8
BLACK
6
CONTINUOUS
10
129.09
20
-85.0697
11
128.739
21
-84.8669
0
LINE
8
BLACK
6
CONTINUOUS
10
128.739
20
-84.8669
11
128.478
21
-84.5563
0
LINE
8
BLACK
6
CONTINUOUS
10
128.478
20
-84.5563
11
128.339
21
-84.1752
0
LINE
8
BLACK
6
CONTINUOUS
10
128.339
20
-84.1752
11
128.339
21
-83.7696
0
LINE
8
BLACK
6
CONTINUOUS
10
128.339
20
-83.7696
11
128.478
21
-83.3885
0
LINE
8
BLACK
6
CONTINUOUS
10
128.478
20
-83.3885
11
128.739
21
-83.0779
0
LINE
8
BLACK
6
CONTINUOUS
10
128.739
20
-83.0779
11
129.09
21
-82.8751
0
LINE
8
BLACK
6
CONTINUOUS
10
129.09
20
-82.8751
11
129.489
21
-82.8047
0
LINE
8
BLACK
6
CONTINUOUS
10
129.489
20
-82.8047
11
129.889
21
-82.8751
0
LINE
8
BLACK
6
CONTINUOUS
10
137.166
20
-83.013
11
137.268
21
-83.0716
0
LINE
8
BLACK
6
CONTINUOUS
10
137.268
20
-83.0716
11
137.343
21
-83.1613
0
LINE
8
BLACK
6
CONTINUOUS
10
137.343
20
-83.1613
11
137.388
21
-83.3301
0
LINE
8
BLACK
6
CONTINUOUS
10
137.388
20
-83.3301
11
137.388
21
-84.0051
0
LINE
8
BLACK
6
CONTINUOUS
10
137.388
20
-84.0051
11
137.368
21
-84.1205
0
LINE
8
BLACK
6
CONTINUOUS
10
137.368
20
-84.1205
11
137.309
21
-84.222
0
LINE
8
BLACK
6
CONTINUOUS
10
137.309
20
-84.222
11
137.22
21
-84.2974
0
LINE
8
BLACK
6
CONTINUOUS
10
137.22
20
-84.2974
11
137.051
21
-84.3426
0
LINE
8
BLACK
6
CONTINUOUS
10
137.051
20
-84.3426
11
136.276
21
-84.3426
0
LINE
8
BLACK
6
CONTINUOUS
10
136.276
20
-84.3426
11
136.16
21
-84.3222
0
LINE
8
BLACK
6
CONTINUOUS
10
136.16
20
-84.3222
11
136.059
21
-84.2636
0
LINE
8
BLACK
6
CONTINUOUS
10
136.059
20
-84.2636
11
135.984
21
-84.1739
0
LINE
8
BLACK
6
CONTINUOUS
10
135.984
20
-84.1739
11
135.938
21
-84.0051
0
LINE
8
BLACK
6
CONTINUOUS
10
135.938
20
-84.0051
11
135.938
21
-83.3301
0
LINE
8
BLACK
6
CONTINUOUS
10
135.938
20
-83.3301
11
135.959
21
-83.2147
0
LINE
8
BLACK
6
CONTINUOUS
10
135.959
20
-83.2147
11
136.017
21
-83.1132
0
LINE
8
BLACK
6
CONTINUOUS
10
136.017
20
-83.1132
11
136.107
21
-83.0378
0
LINE
8
BLACK
6
CONTINUOUS
10
136.107
20
-83.0378
11
136.276
21
-82.9926
0
LINE
8
BLACK
6
CONTINUOUS
10
136.276
20
-82.9926
11
137.051
21
-82.9926
0
LINE
8
BLACK
6
CONTINUOUS
10
137.051
20
-82.9926
11
137.166
21
-83.013
0
LINE
8
BLACK
6
CONTINUOUS
10
135.416
20
-83.013
11
135.518
21
-83.0716
0
LINE
8
BLACK
6
CONTINUOUS
10
135.518
20
-83.0716
11
135.593
21
-83.1613
0
LINE
8
BLACK
6
CONTINUOUS
10
135.593
20
-83.1613
11
135.638
21
-83.3301
0
LINE
8
BLACK
6
CONTINUOUS
10
135.638
20
-83.3301
11
135.638
21
-84.0051
0
LINE
8
BLACK
6
CONTINUOUS
10
135.638
20
-84.0051
11
135.618
21
-84.1205
0
LINE
8
BLACK
6
CONTINUOUS
10
135.618
20
-84.1205
11
135.559
21
-84.222
0
LINE
8
BLACK
6
CONTINUOUS
10
135.559
20
-84.222
11
135.47
21
-84.2974
0
LINE
8
BLACK
6
CONTINUOUS
10
135.47
20
-84.2974
11
135.301
21
-84.3426
0
LINE
8
BLACK
6
CONTINUOUS
10
135.301
20
-84.3426
11
134.526
21
-84.3426
0
LINE
8
BLACK
6
CONTINUOUS
10
134.526
20
-84.3426
11
134.41
21
-84.3222
0
LINE
8
BLACK
6
CONTINUOUS
10
134.41
20
-84.3222
11
134.309
21
-84.2636
0
LINE
8
BLACK
6
CONTINUOUS
10
134.309
20
-84.2636
11
134.234
21
-84.1739
0
LINE
8
BLACK
6
CONTINUOUS
10
134.234
20
-84.1739
11
134.188
21
-84.0051
0
LINE
8
BLACK
6
CONTINUOUS
10
134.188
20
-84.0051
11
134.188
21
-83.3301
0
LINE
8
BLACK
6
CONTINUOUS
10
134.188
20
-83.3301
11
134.209
21
-83.2147
0
LINE
8
BLACK
6
CONTINUOUS
10
134.209
20
-83.2147
11
134.267
21
-83.1132
0
LINE
8
BLACK
6
CONTINUOUS
10
134.267
20
-83.1132
11
134.357
21
-83.0378
0
LINE
8
BLACK
6
CONTINUOUS
10
134.357
20
-83.0378
11
134.526
21
-82.9926
0
LINE
8
BLACK
6
CONTINUOUS
10
134.526
20
-82.9926
11
135.301
21
-82.9926
0
LINE
8
BLACK
6
CONTINUOUS
10
135.301
20
-82.9926
11
135.416
21
-83.013
0
LINE
8
BLACK
6
CONTINUOUS
10
109.042
20
-77.1374
11
109.958
21
-77.6664
0
LINE
8
BLACK
6
CONTINUOUS
10
109.958
20
-77.6664
11
110.638
21
-78.4769
0
LINE
8
BLACK
6
CONTINUOUS
10
110.638
20
-78.4769
11
111
21
-79.471
0
LINE
8
BLACK
6
CONTINUOUS
10
111
20
-79.471
11
111
21
-80.529
0
LINE
8
BLACK
6
CONTINUOUS
10
111
20
-80.529
11
110.638
21
-81.5231
0
LINE
8
BLACK
6
CONTINUOUS
10
110.638
20
-81.5231
11
109.958
21
-82.3336
0
LINE
8
BLACK
6
CONTINUOUS
10
109.958
20
-82.3336
11
109.042
21
-82.8626
0
LINE
8
BLACK
6
CONTINUOUS
10
109.042
20
-82.8626
11
108
21
-83.0463
0
LINE
8
BLACK
6
CONTINUOUS
10
108
20
-83.0463
11
106.958
21
-82.8626
0
LINE
8
BLACK
6
CONTINUOUS
10
106.958
20
-82.8626
11
106.042
21
-82.3336
0
LINE
8
BLACK
6
CONTINUOUS
10
106.042
20
-82.3336
11
105.362
21
-81.5231
0
LINE
8
BLACK
6
CONTINUOUS
10
105.362
20
-81.5231
11
105
21
-80.529
0
LINE
8
BLACK
6
CONTINUOUS
10
105
20
-80.529
11
105
21
-79.471
0
LINE
8
BLACK
6
CONTINUOUS
10
105
20
-79.471
11
105.362
21
-78.4769
0
LINE
8
BLACK
6
CONTINUOUS
10
105.362
20
-78.4769
11
106.042
21
-77.6664
0
LINE
8
BLACK
6
CONTINUOUS
10
106.042
20
-77.6664
11
106.958
21
-77.1374
0
LINE
8
BLACK
6
CONTINUOUS
10
106.958
20
-77.1374
11
108
21
-76.9537
0
LINE
8
BLACK
6
CONTINUOUS
10
108
20
-76.9537
11
109.042
21
-77.1374
0
LINE
8
BLACK
6
CONTINUOUS
10
145.129
20
-80.3351
11
145.48
21
-80.5379
0
LINE
8
BLACK
6
CONTINUOUS
10
145.48
20
-80.5379
11
145.74
21
-80.8485
0
LINE
8
BLACK
6
CONTINUOUS
10
145.74
20
-80.8485
11
145.879
21
-81.2296
0
LINE
8
BLACK
6
CONTINUOUS
10
145.879
20
-81.2296
11
145.879
21
-81.6352
0
LINE
8
BLACK
6
CONTINUOUS
10
145.879
20
-81.6352
11
145.74
21
-82.0163
0
LINE
8
BLACK
6
CONTINUOUS
10
145.74
20
-82.0163
11
145.48
21
-82.3269
0
LINE
8
BLACK
6
CONTINUOUS
10
145.48
20
-82.3269
11
145.129
21
-82.5297
0
LINE
8
BLACK
6
CONTINUOUS
10
145.129
20
-82.5297
11
144.729
21
-82.6001
0
LINE
8
BLACK
6
CONTINUOUS
10
144.729
20
-82.6001
11
144.33
21
-82.5297
0
LINE
8
BLACK
6
CONTINUOUS
10
144.33
20
-82.5297
11
143.979
21
-82.3269
0
LINE
8
BLACK
6
CONTINUOUS
10
143.979
20
-82.3269
11
143.718
21
-82.0163
0
LINE
8
BLACK
6
CONTINUOUS
10
143.718
20
-82.0163
11
143.579
21
-81.6352
0
LINE
8
BLACK
6
CONTINUOUS
10
143.579
20
-81.6352
11
143.579
21
-81.2296
0
LINE
8
BLACK
6
CONTINUOUS
10
143.579
20
-81.2296
11
143.718
21
-80.8485
0
LINE
8
BLACK
6
CONTINUOUS
10
143.718
20
-80.8485
11
143.979
21
-80.5379
0
LINE
8
BLACK
6
CONTINUOUS
10
143.979
20
-80.5379
11
144.33
21
-80.3351
0
LINE
8
BLACK
6
CONTINUOUS
10
144.33
20
-80.3351
11
144.729
21
-80.2647
0
LINE
8
BLACK
6
CONTINUOUS
10
144.729
20
-80.2647
11
145.129
21
-80.3351
0
LINE
8
BLACK
6
CONTINUOUS
10
129.889
20
-80.3351
11
130.24
21
-80.5379
0
LINE
8
BLACK
6
CONTINUOUS
10
130.24
20
-80.5379
11
130.5
21
-80.8485
0
LINE
8
BLACK
6
CONTINUOUS
10
130.5
20
-80.8485
11
130.639
21
-81.2296
0
LINE
8
BLACK
6
CONTINUOUS
10
130.639
20
-81.2296
11
130.639
21
-81.6352
0
LINE
8
BLACK
6
CONTINUOUS
10
130.639
20
-81.6352
11
130.5
21
-82.0163
0
LINE
8
BLACK
6
CONTINUOUS
10
130.5
20
-82.0163
11
130.24
21
-82.3269
0
LINE
8
BLACK
6
CONTINUOUS
10
130.24
20
-82.3269
11
129.889
21
-82.5297
0
LINE
8
BLACK
6
CONTINUOUS
10
129.889
20
-82.5297
11
129.489
21
-82.6001
0
LINE
8
BLACK
6
CONTINUOUS
10
129.489
20
-82.6001
11
129.09
21
-82.5297
0
LINE
8
BLACK
6
CONTINUOUS
10
129.09
20
-82.5297
11
128.739
21
-82.3269
0
LINE
8
BLACK
6
CONTINUOUS
10
128.739
20
-82.3269
11
128.478
21
-82.0163
0
LINE
8
BLACK
6
CONTINUOUS
10
128.478
20
-82.0163
11
128.339
21
-81.6352
0
LINE
8
BLACK
6
CONTINUOUS
10
128.339
20
-81.6352
11
128.339
21
-81.2296
0
LINE
8
BLACK
6
CONTINUOUS
10
128.339
20
-81.2296
11
128.478
21
-80.8485
0
LINE
8
BLACK
6
CONTINUOUS
10
128.478
20
-80.8485
11
128.739
21
-80.5379
0
LINE
8
BLACK
6
CONTINUOUS
10
128.739
20
-80.5379
11
129.09
21
-80.3351
0
LINE
8
BLACK
6
CONTINUOUS
10
129.09
20
-80.3351
11
129.489
21
-80.2647
0
LINE
8
BLACK
6
CONTINUOUS
10
129.489
20
-80.2647
11
129.889
21
-80.3351
0
LINE
8
BLACK
6
CONTINUOUS
10
151.195
20
-78.6788
11
151.592
21
-78.908
0
LINE
8
BLACK
6
CONTINUOUS
10
151.592
20
-78.908
11
151.887
21
-79.2592
0
LINE
8
BLACK
6
CONTINUOUS
10
151.887
20
-79.2592
11
152.044
21
-79.69
0
LINE
8
BLACK
6
CONTINUOUS
10
152.044
20
-79.69
11
152.044
21
-80.1484
0
LINE
8
BLACK
6
CONTINUOUS
10
152.044
20
-80.1484
11
151.887
21
-80.5792
0
LINE
8
BLACK
6
CONTINUOUS
10
151.887
20
-80.5792
11
151.592
21
-80.9304
0
LINE
8
BLACK
6
CONTINUOUS
10
151.592
20
-80.9304
11
151.195
21
-81.1596
0
LINE
8
BLACK
6
CONTINUOUS
10
151.195
20
-81.1596
11
150.744
21
-81.2393
0
LINE
8
BLACK
6
CONTINUOUS
10
150.744
20
-81.2393
11
150.292
21
-81.1596
0
LINE
8
BLACK
6
CONTINUOUS
10
150.292
20
-81.1596
11
149.895
21
-80.9304
0
LINE
8
BLACK
6
CONTINUOUS
10
149.895
20
-80.9304
11
149.6
21
-80.5792
0
LINE
8
BLACK
6
CONTINUOUS
10
149.6
20
-80.5792
11
149.444
21
-80.1484
0
LINE
8
BLACK
6
CONTINUOUS
10
149.444
20
-80.1484
11
149.444
21
-79.69
0
LINE
8
BLACK
6
CONTINUOUS
10
149.444
20
-79.69
11
149.6
21
-79.2592
0
LINE
8
BLACK
6
CONTINUOUS
10
149.6
20
-79.2592
11
149.895
21
-78.908
0
LINE
8
BLACK
6
CONTINUOUS
10
149.895
20
-78.908
11
150.292
21
-78.6788
0
LINE
8
BLACK
6
CONTINUOUS
10
150.292
20
-78.6788
11
150.744
21
-78.5991
0
LINE
8
BLACK
6
CONTINUOUS
10
150.744
20
-78.5991
11
151.195
21
-78.6788
0
LINE
8
BLACK
6
CONTINUOUS
10
158.195
20
-78.6788
11
158.592
21
-78.908
0
LINE
8
BLACK
6
CONTINUOUS
10
158.592
20
-78.908
11
158.887
21
-79.2592
0
LINE
8
BLACK
6
CONTINUOUS
10
158.887
20
-79.2592
11
159.044
21
-79.69
0
LINE
8
BLACK
6
CONTINUOUS
10
159.044
20
-79.69
11
159.044
21
-80.1484
0
LINE
8
BLACK
6
CONTINUOUS
10
159.044
20
-80.1484
11
158.887
21
-80.5792
0
LINE
8
BLACK
6
CONTINUOUS
10
158.887
20
-80.5792
11
158.592
21
-80.9304
0
LINE
8
BLACK
6
CONTINUOUS
10
158.592
20
-80.9304
11
158.195
21
-81.1596
0
LINE
8
BLACK
6
CONTINUOUS
10
158.195
20
-81.1596
11
157.744
21
-81.2393
0
LINE
8
BLACK
6
CONTINUOUS
10
157.744
20
-81.2393
11
157.292
21
-81.1596
0
LINE
8
BLACK
6
CONTINUOUS
10
157.292
20
-81.1596
11
156.895
21
-80.9304
0
LINE
8
BLACK
6
CONTINUOUS
10
156.895
20
-80.9304
11
156.6
21
-80.5792
0
LINE
8
BLACK
6
CONTINUOUS
10
156.6
20
-80.5792
11
156.444
21
-80.1484
0
LINE
8
BLACK
6
CONTINUOUS
10
156.444
20
-80.1484
11
156.444
21
-79.69
0
LINE
8
BLACK
6
CONTINUOUS
10
156.444
20
-79.69
11
156.6
21
-79.2592
0
LINE
8
BLACK
6
CONTINUOUS
10
156.6
20
-79.2592
11
156.895
21
-78.908
0
LINE
8
BLACK
6
CONTINUOUS
10
156.895
20
-78.908
11
157.292
21
-78.6788
0
LINE
8
BLACK
6
CONTINUOUS
10
157.292
20
-78.6788
11
157.744
21
-78.5991
0
LINE
8
BLACK
6
CONTINUOUS
10
157.744
20
-78.5991
11
158.195
21
-78.6788
0
LINE
8
BLACK
6
CONTINUOUS
10
170.387
20
-78.6788
11
170.784
21
-78.908
0
LINE
8
BLACK
6
CONTINUOUS
10
170.784
20
-78.908
11
171.079
21
-79.2592
0
LINE
8
BLACK
6
CONTINUOUS
10
171.079
20
-79.2592
11
171.236
21
-79.69
0
LINE
8
BLACK
6
CONTINUOUS
10
171.236
20
-79.69
11
171.236
21
-80.1484
0
LINE
8
BLACK
6
CONTINUOUS
10
171.236
20
-80.1484
11
171.079
21
-80.5792
0
LINE
8
BLACK
6
CONTINUOUS
10
171.079
20
-80.5792
11
170.784
21
-80.9304
0
LINE
8
BLACK
6
CONTINUOUS
10
170.784
20
-80.9304
11
170.387
21
-81.1596
0
LINE
8
BLACK
6
CONTINUOUS
10
170.387
20
-81.1596
11
169.936
21
-81.2393
0
LINE
8
BLACK
6
CONTINUOUS
10
169.936
20
-81.2393
11
169.484
21
-81.1596
0
LINE
8
BLACK
6
CONTINUOUS
10
169.484
20
-81.1596
11
169.087
21
-80.9304
0
LINE
8
BLACK
6
CONTINUOUS
10
169.087
20
-80.9304
11
168.792
21
-80.5792
0
LINE
8
BLACK
6
CONTINUOUS
10
168.792
20
-80.5792
11
168.636
21
-80.1484
0
LINE
8
BLACK
6
CONTINUOUS
10
168.636
20
-80.1484
11
168.636
21
-79.69
0
LINE
8
BLACK
6
CONTINUOUS
10
168.636
20
-79.69
11
168.792
21
-79.2592
0
LINE
8
BLACK
6
CONTINUOUS
10
168.792
20
-79.2592
11
169.087
21
-78.908
0
LINE
8
BLACK
6
CONTINUOUS
10
169.087
20
-78.908
11
169.484
21
-78.6788
0
LINE
8
BLACK
6
CONTINUOUS
10
169.484
20
-78.6788
11
169.936
21
-78.5991
0
LINE
8
BLACK
6
CONTINUOUS
10
169.936
20
-78.5991
11
170.387
21
-78.6788
0
LINE
8
BLACK
6
CONTINUOUS
10
163.387
20
-78.6788
11
163.784
21
-78.908
0
LINE
8
BLACK
6
CONTINUOUS
10
163.784
20
-78.908
11
164.079
21
-79.2592
0
LINE
8
BLACK
6
CONTINUOUS
10
164.079
20
-79.2592
11
164.236
21
-79.69
0
LINE
8
BLACK
6
CONTINUOUS
10
164.236
20
-79.69
11
164.236
21
-80.1484
0
LINE
8
BLACK
6
CONTINUOUS
10
164.236
20
-80.1484
11
164.079
21
-80.5792
0
LINE
8
BLACK
6
CONTINUOUS
10
164.079
20
-80.5792
11
163.784
21
-80.9304
0
LINE
8
BLACK
6
CONTINUOUS
10
163.784
20
-80.9304
11
163.387
21
-81.1596
0
LINE
8
BLACK
6
CONTINUOUS
10
163.387
20
-81.1596
11
162.936
21
-81.2393
0
LINE
8
BLACK
6
CONTINUOUS
10
162.936
20
-81.2393
11
162.484
21
-81.1596
0
LINE
8
BLACK
6
CONTINUOUS
10
162.484
20
-81.1596
11
162.087
21
-80.9304
0
LINE
8
BLACK
6
CONTINUOUS
10
162.087
20
-80.9304
11
161.792
21
-80.5792
0
LINE
8
BLACK
6
CONTINUOUS
10
161.792
20
-80.5792
11
161.636
21
-80.1484
0
LINE
8
BLACK
6
CONTINUOUS
10
161.636
20
-80.1484
11
161.636
21
-79.69
0
LINE
8
BLACK
6
CONTINUOUS
10
161.636
20
-79.69
11
161.792
21
-79.2592
0
LINE
8
BLACK
6
CONTINUOUS
10
161.792
20
-79.2592
11
162.087
21
-78.908
0
LINE
8
BLACK
6
CONTINUOUS
10
162.087
20
-78.908
11
162.484
21
-78.6788
0
LINE
8
BLACK
6
CONTINUOUS
10
162.484
20
-78.6788
11
162.936
21
-78.5991
0
LINE
8
BLACK
6
CONTINUOUS
10
162.936
20
-78.5991
11
163.387
21
-78.6788
0
LINE
8
BLACK
6
CONTINUOUS
10
123.072
20
-80.931
11
120.972
21
-80.931
0
LINE
8
BLACK
6
CONTINUOUS
10
120.972
20
-80.931
11
120.972
21
-78.581
0
LINE
8
BLACK
6
CONTINUOUS
10
120.972
20
-78.581
11
123.072
21
-78.581
0
LINE
8
BLACK
6
CONTINUOUS
10
123.072
20
-78.581
11
123.072
21
-80.931
0
LINE
8
BLACK
6
CONTINUOUS
10
117.555
20
-78.7076
11
117.838
21
-78.9457
0
LINE
8
BLACK
6
CONTINUOUS
10
117.838
20
-78.9457
11
118.023
21
-79.2663
0
LINE
8
BLACK
6
CONTINUOUS
10
118.023
20
-79.2663
11
118.072
21
-79.5391
0
LINE
8
BLACK
6
CONTINUOUS
10
118.072
20
-79.5391
11
118.072
21
-79.9729
0
LINE
8
BLACK
6
CONTINUOUS
10
118.072
20
-79.9729
11
118.023
21
-80.2457
0
LINE
8
BLACK
6
CONTINUOUS
10
118.023
20
-80.2457
11
117.838
21
-80.5663
0
LINE
8
BLACK
6
CONTINUOUS
10
117.838
20
-80.5663
11
117.555
21
-80.8044
0
LINE
8
BLACK
6
CONTINUOUS
10
117.555
20
-80.8044
11
117.207
21
-80.931
0
LINE
8
BLACK
6
CONTINUOUS
10
117.207
20
-80.931
11
116.836
21
-80.931
0
LINE
8
BLACK
6
CONTINUOUS
10
116.836
20
-80.931
11
116.489
21
-80.8044
0
LINE
8
BLACK
6
CONTINUOUS
10
116.489
20
-80.8044
11
116.205
21
-80.5663
0
LINE
8
BLACK
6
CONTINUOUS
10
116.205
20
-80.5663
11
116.02
21
-80.2457
0
LINE
8
BLACK
6
CONTINUOUS
10
116.02
20
-80.2457
11
115.972
21
-79.9729
0
LINE
8
BLACK
6
CONTINUOUS
10
115.972
20
-79.9729
11
115.972
21
-79.5391
0
LINE
8
BLACK
6
CONTINUOUS
10
115.972
20
-79.5391
11
116.02
21
-79.2663
0
LINE
8
BLACK
6
CONTINUOUS
10
116.02
20
-79.2663
11
116.205
21
-78.9457
0
LINE
8
BLACK
6
CONTINUOUS
10
116.205
20
-78.9457
11
116.489
21
-78.7076
0
LINE
8
BLACK
6
CONTINUOUS
10
116.489
20
-78.7076
11
116.836
21
-78.581
0
LINE
8
BLACK
6
CONTINUOUS
10
116.836
20
-78.581
11
117.207
21
-78.581
0
LINE
8
BLACK
6
CONTINUOUS
10
117.207
20
-78.581
11
117.555
21
-78.7076
0
LINE
8
BLACK
6
CONTINUOUS
10
120.055
20
-78.7076
11
120.338
21
-78.9457
0
LINE
8
BLACK
6
CONTINUOUS
10
120.338
20
-78.9457
11
120.523
21
-79.2663
0
LINE
8
BLACK
6
CONTINUOUS
10
120.523
20
-79.2663
11
120.572
21
-79.5391
0
LINE
8
BLACK
6
CONTINUOUS
10
120.572
20
-79.5391
11
120.572
21
-79.9729
0
LINE
8
BLACK
6
CONTINUOUS
10
120.572
20
-79.9729
11
120.523
21
-80.2457
0
LINE
8
BLACK
6
CONTINUOUS
10
120.523
20
-80.2457
11
120.338
21
-80.5663
0
LINE
8
BLACK
6
CONTINUOUS
10
120.338
20
-80.5663
11
120.055
21
-80.8044
0
LINE
8
BLACK
6
CONTINUOUS
10
120.055
20
-80.8044
11
119.707
21
-80.931
0
LINE
8
BLACK
6
CONTINUOUS
10
119.707
20
-80.931
11
119.336
21
-80.931
0
LINE
8
BLACK
6
CONTINUOUS
10
119.336
20
-80.931
11
118.989
21
-80.8044
0
LINE
8
BLACK
6
CONTINUOUS
10
118.989
20
-80.8044
11
118.705
21
-80.5663
0
LINE
8
BLACK
6
CONTINUOUS
10
118.705
20
-80.5663
11
118.52
21
-80.2457
0
LINE
8
BLACK
6
CONTINUOUS
10
118.52
20
-80.2457
11
118.472
21
-79.9729
0
LINE
8
BLACK
6
CONTINUOUS
10
118.472
20
-79.9729
11
118.472
21
-79.5391
0
LINE
8
BLACK
6
CONTINUOUS
10
118.472
20
-79.5391
11
118.52
21
-79.2663
0
LINE
8
BLACK
6
CONTINUOUS
10
118.52
20
-79.2663
11
118.705
21
-78.9457
0
LINE
8
BLACK
6
CONTINUOUS
10
118.705
20
-78.9457
11
118.989
21
-78.7076
0
LINE
8
BLACK
6
CONTINUOUS
10
118.989
20
-78.7076
11
119.336
21
-78.581
0
LINE
8
BLACK
6
CONTINUOUS
10
119.336
20
-78.581
11
119.707
21
-78.581
0
LINE
8
BLACK
6
CONTINUOUS
10
119.707
20
-78.581
11
120.055
21
-78.7076
0
LINE
8
BLACK
6
CONTINUOUS
10
145.129
20
-77.7951
11
145.48
21
-77.9979
0
LINE
8
BLACK
6
CONTINUOUS
10
145.48
20
-77.9979
11
145.74
21
-78.3085
0
LINE
8
BLACK
6
CONTINUOUS
10
145.74
20
-78.3085
11
145.879
21
-78.6896
0
LINE
8
BLACK
6
CONTINUOUS
10
145.879
20
-78.6896
11
145.879
21
-79.0952
0
LINE
8
BLACK
6
CONTINUOUS
10
145.879
20
-79.0952
11
145.74
21
-79.4763
0
LINE
8
BLACK
6
CONTINUOUS
10
145.74
20
-79.4763
11
145.48
21
-79.7869
0
LINE
8
BLACK
6
CONTINUOUS
10
145.48
20
-79.7869
11
145.129
21
-79.9897
0
LINE
8
BLACK
6
CONTINUOUS
10
145.129
20
-79.9897
11
144.729
21
-80.0601
0
LINE
8
BLACK
6
CONTINUOUS
10
144.729
20
-80.0601
11
144.33
21
-79.9897
0
LINE
8
BLACK
6
CONTINUOUS
10
144.33
20
-79.9897
11
143.979
21
-79.7869
0
LINE
8
BLACK
6
CONTINUOUS
10
143.979
20
-79.7869
11
143.718
21
-79.4763
0
LINE
8
BLACK
6
CONTINUOUS
10
143.718
20
-79.4763
11
143.579
21
-79.0952
0
LINE
8
BLACK
6
CONTINUOUS
10
143.579
20
-79.0952
11
143.579
21
-78.6896
0
LINE
8
BLACK
6
CONTINUOUS
10
143.579
20
-78.6896
11
143.718
21
-78.3085
0
LINE
8
BLACK
6
CONTINUOUS
10
143.718
20
-78.3085
11
143.979
21
-77.9979
0
LINE
8
BLACK
6
CONTINUOUS
10
143.979
20
-77.9979
11
144.33
21
-77.7951
0
LINE
8
BLACK
6
CONTINUOUS
10
144.33
20
-77.7951
11
144.729
21
-77.7247
0
LINE
8
BLACK
6
CONTINUOUS
10
144.729
20
-77.7247
11
145.129
21
-77.7951
0
LINE
8
BLACK
6
CONTINUOUS
10
129.889
20
-77.7951
11
130.24
21
-77.9979
0
LINE
8
BLACK
6
CONTINUOUS
10
130.24
20
-77.9979
11
130.5
21
-78.3085
0
LINE
8
BLACK
6
CONTINUOUS
10
130.5
20
-78.3085
11
130.639
21
-78.6896
0
LINE
8
BLACK
6
CONTINUOUS
10
130.639
20
-78.6896
11
130.639
21
-79.0952
0
LINE
8
BLACK
6
CONTINUOUS
10
130.639
20
-79.0952
11
130.5
21
-79.4763
0
LINE
8
BLACK
6
CONTINUOUS
10
130.5
20
-79.4763
11
130.24
21
-79.7869
0
LINE
8
BLACK
6
CONTINUOUS
10
130.24
20
-79.7869
11
129.889
21
-79.9897
0
LINE
8
BLACK
6
CONTINUOUS
10
129.889
20
-79.9897
11
129.489
21
-80.0601
0
LINE
8
BLACK
6
CONTINUOUS
10
129.489
20
-80.0601
11
129.09
21
-79.9897
0
LINE
8
BLACK
6
CONTINUOUS
10
129.09
20
-79.9897
11
128.739
21
-79.7869
0
LINE
8
BLACK
6
CONTINUOUS
10
128.739
20
-79.7869
11
128.478
21
-79.4763
0
LINE
8
BLACK
6
CONTINUOUS
10
128.478
20
-79.4763
11
128.339
21
-79.0952
0
LINE
8
BLACK
6
CONTINUOUS
10
128.339
20
-79.0952
11
128.339
21
-78.6896
0
LINE
8
BLACK
6
CONTINUOUS
10
128.339
20
-78.6896
11
128.478
21
-78.3085
0
LINE
8
BLACK
6
CONTINUOUS
10
128.478
20
-78.3085
11
128.739
21
-77.9979
0
LINE
8
BLACK
6
CONTINUOUS
10
128.739
20
-77.9979
11
129.09
21
-77.7951
0
LINE
8
BLACK
6
CONTINUOUS
10
129.09
20
-77.7951
11
129.489
21
-77.7247
0
LINE
8
BLACK
6
CONTINUOUS
10
129.489
20
-77.7247
11
129.889
21
-77.7951
0
LINE
8
BLACK
6
CONTINUOUS
10
135.467
20
-78.2378
11
135.569
21
-78.2964
0
LINE
8
BLACK
6
CONTINUOUS
10
135.569
20
-78.2964
11
135.644
21
-78.3862
0
LINE
8
BLACK
6
CONTINUOUS
10
135.644
20
-78.3862
11
135.689
21
-78.5549
0
LINE
8
BLACK
6
CONTINUOUS
10
135.689
20
-78.5549
11
135.689
21
-79.2299
0
LINE
8
BLACK
6
CONTINUOUS
10
135.689
20
-79.2299
11
135.669
21
-79.3453
0
LINE
8
BLACK
6
CONTINUOUS
10
135.669
20
-79.3453
11
135.61
21
-79.4468
0
LINE
8
BLACK
6
CONTINUOUS
10
135.61
20
-79.4468
11
135.52
21
-79.5222
0
LINE
8
BLACK
6
CONTINUOUS
10
135.52
20
-79.5222
11
135.352
21
-79.5674
0
LINE
8
BLACK
6
CONTINUOUS
10
135.352
20
-79.5674
11
134.577
21
-79.5674
0
LINE
8
BLACK
6
CONTINUOUS
10
134.577
20
-79.5674
11
134.461
21
-79.547
0
LINE
8
BLACK
6
CONTINUOUS
10
134.461
20
-79.547
11
134.36
21
-79.4884
0
LINE
8
BLACK
6
CONTINUOUS
10
134.36
20
-79.4884
11
134.284
21
-79.3987
0
LINE
8
BLACK
6
CONTINUOUS
10
134.284
20
-79.3987
11
134.239
21
-79.2299
0
LINE
8
BLACK
6
CONTINUOUS
10
134.239
20
-79.2299
11
134.239
21
-78.5549
0
LINE
8
BLACK
6
CONTINUOUS
10
134.239
20
-78.5549
11
134.26
21
-78.4395
0
LINE
8
BLACK
6
CONTINUOUS
10
134.26
20
-78.4395
11
134.318
21
-78.338
0
LINE
8
BLACK
6
CONTINUOUS
10
134.318
20
-78.338
11
134.408
21
-78.2626
0
LINE
8
BLACK
6
CONTINUOUS
10
134.408
20
-78.2626
11
134.577
21
-78.2174
0
LINE
8
BLACK
6
CONTINUOUS
10
134.577
20
-78.2174
11
135.352
21
-78.2174
0
LINE
8
BLACK
6
CONTINUOUS
10
135.352
20
-78.2174
11
135.467
21
-78.2378
0
LINE
8
BLACK
6
CONTINUOUS
10
137.217
20
-78.2378
11
137.319
21
-78.2964
0
LINE
8
BLACK
6
CONTINUOUS
10
137.319
20
-78.2964
11
137.394
21
-78.3862
0
LINE
8
BLACK
6
CONTINUOUS
10
137.394
20
-78.3862
11
137.439
21
-78.5549
0
LINE
8
BLACK
6
CONTINUOUS
10
137.439
20
-78.5549
11
137.439
21
-79.2299
0
LINE
8
BLACK
6
CONTINUOUS
10
137.439
20
-79.2299
11
137.419
21
-79.3453
0
LINE
8
BLACK
6
CONTINUOUS
10
137.419
20
-79.3453
11
137.36
21
-79.4468
0
LINE
8
BLACK
6
CONTINUOUS
10
137.36
20
-79.4468
11
137.27
21
-79.5222
0
LINE
8
BLACK
6
CONTINUOUS
10
137.27
20
-79.5222
11
137.102
21
-79.5674
0
LINE
8
BLACK
6
CONTINUOUS
10
137.102
20
-79.5674
11
136.327
21
-79.5674
0
LINE
8
BLACK
6
CONTINUOUS
10
136.327
20
-79.5674
11
136.211
21
-79.547
0
LINE
8
BLACK
6
CONTINUOUS
10
136.211
20
-79.547
11
136.11
21
-79.4884
0
LINE
8
BLACK
6
CONTINUOUS
10
136.11
20
-79.4884
11
136.034
21
-79.3987
0
LINE
8
BLACK
6
CONTINUOUS
10
136.034
20
-79.3987
11
135.989
21
-79.2299
0
LINE
8
BLACK
6
CONTINUOUS
10
135.989
20
-79.2299
11
135.989
21
-78.5549
0
LINE
8
BLACK
6
CONTINUOUS
10
135.989
20
-78.5549
11
136.01
21
-78.4395
0
LINE
8
BLACK
6
CONTINUOUS
10
136.01
20
-78.4395
11
136.068
21
-78.338
0
LINE
8
BLACK
6
CONTINUOUS
10
136.068
20
-78.338
11
136.158
21
-78.2626
0
LINE
8
BLACK
6
CONTINUOUS
10
136.158
20
-78.2626
11
136.327
21
-78.2174
0
LINE
8
BLACK
6
CONTINUOUS
10
136.327
20
-78.2174
11
137.102
21
-78.2174
0
LINE
8
BLACK
6
CONTINUOUS
10
137.102
20
-78.2174
11
137.217
21
-78.2378
0
LINE
8
BLACK
6
CONTINUOUS
10
164.55
20
-76.4173
11
164.871
21
-76.6024
0
LINE
8
BLACK
6
CONTINUOUS
10
164.871
20
-76.6024
11
165.109
21
-76.8861
0
LINE
8
BLACK
6
CONTINUOUS
10
165.109
20
-76.8861
11
165.236
21
-77.2341
0
LINE
8
BLACK
6
CONTINUOUS
10
165.236
20
-77.2341
11
165.236
21
-77.6043
0
LINE
8
BLACK
6
CONTINUOUS
10
165.236
20
-77.6043
11
165.109
21
-77.9523
0
LINE
8
BLACK
6
CONTINUOUS
10
165.109
20
-77.9523
11
164.871
21
-78.236
0
LINE
8
BLACK
6
CONTINUOUS
10
164.871
20
-78.236
11
164.55
21
-78.4211
0
LINE
8
BLACK
6
CONTINUOUS
10
164.55
20
-78.4211
11
164.186
21
-78.4854
0
LINE
8
BLACK
6
CONTINUOUS
10
164.186
20
-78.4854
11
163.821
21
-78.4211
0
LINE
8
BLACK
6
CONTINUOUS
10
163.821
20
-78.4211
11
163.5
21
-78.236
0
LINE
8
BLACK
6
CONTINUOUS
10
163.5
20
-78.236
11
163.262
21
-77.9523
0
LINE
8
BLACK
6
CONTINUOUS
10
163.262
20
-77.9523
11
163.136
21
-77.6043
0
LINE
8
BLACK
6
CONTINUOUS
10
163.136
20
-77.6043
11
163.136
21
-77.2341
0
LINE
8
BLACK
6
CONTINUOUS
10
163.136
20
-77.2341
11
163.262
21
-76.8861
0
LINE
8
BLACK
6
CONTINUOUS
10
163.262
20
-76.8861
11
163.5
21
-76.6024
0
LINE
8
BLACK
6
CONTINUOUS
10
163.5
20
-76.6024
11
163.821
21
-76.4173
0
LINE
8
BLACK
6
CONTINUOUS
10
163.821
20
-76.4173
11
164.186
21
-76.353
0
LINE
8
BLACK
6
CONTINUOUS
10
164.186
20
-76.353
11
164.55
21
-76.4173
0
LINE
8
BLACK
6
CONTINUOUS
10
156.858
20
-76.4173
11
157.179
21
-76.6024
0
LINE
8
BLACK
6
CONTINUOUS
10
157.179
20
-76.6024
11
157.417
21
-76.8861
0
LINE
8
BLACK
6
CONTINUOUS
10
157.417
20
-76.8861
11
157.544
21
-77.2341
0
LINE
8
BLACK
6
CONTINUOUS
10
157.544
20
-77.2341
11
157.544
21
-77.6043
0
LINE
8
BLACK
6
CONTINUOUS
10
157.544
20
-77.6043
11
157.417
21
-77.9523
0
LINE
8
BLACK
6
CONTINUOUS
10
157.417
20
-77.9523
11
157.179
21
-78.236
0
LINE
8
BLACK
6
CONTINUOUS
10
157.179
20
-78.236
11
156.858
21
-78.4211
0
LINE
8
BLACK
6
CONTINUOUS
10
156.858
20
-78.4211
11
156.494
21
-78.4854
0
LINE
8
BLACK
6
CONTINUOUS
10
156.494
20
-78.4854
11
156.129
21
-78.4211
0
LINE
8
BLACK
6
CONTINUOUS
10
156.129
20
-78.4211
11
155.808
21
-78.236
0
LINE
8
BLACK
6
CONTINUOUS
10
155.808
20
-78.236
11
155.57
21
-77.9523
0
LINE
8
BLACK
6
CONTINUOUS
10
155.57
20
-77.9523
11
155.444
21
-77.6043
0
LINE
8
BLACK
6
CONTINUOUS
10
155.444
20
-77.6043
11
155.444
21
-77.2341
0
LINE
8
BLACK
6
CONTINUOUS
10
155.444
20
-77.2341
11
155.57
21
-76.8861
0
LINE
8
BLACK
6
CONTINUOUS
10
155.57
20
-76.8861
11
155.808
21
-76.6024
0
LINE
8
BLACK
6
CONTINUOUS
10
155.808
20
-76.6024
11
156.129
21
-76.4173
0
LINE
8
BLACK
6
CONTINUOUS
10
156.129
20
-76.4173
11
156.494
21
-76.353
0
LINE
8
BLACK
6
CONTINUOUS
10
156.494
20
-76.353
11
156.858
21
-76.4173
0
LINE
8
BLACK
6
CONTINUOUS
10
152.358
20
-76.4173
11
152.679
21
-76.6024
0
LINE
8
BLACK
6
CONTINUOUS
10
152.679
20
-76.6024
11
152.917
21
-76.8861
0
LINE
8
BLACK
6
CONTINUOUS
10
152.917
20
-76.8861
11
153.044
21
-77.2341
0
LINE
8
BLACK
6
CONTINUOUS
10
153.044
20
-77.2341
11
153.044
21
-77.6043
0
LINE
8
BLACK
6
CONTINUOUS
10
153.044
20
-77.6043
11
152.917
21
-77.9523
0
LINE
8
BLACK
6
CONTINUOUS
10
152.917
20
-77.9523
11
152.679
21
-78.236
0
LINE
8
BLACK
6
CONTINUOUS
10
152.679
20
-78.236
11
152.358
21
-78.4211
0
LINE
8
BLACK
6
CONTINUOUS
10
152.358
20
-78.4211
11
151.994
21
-78.4854
0
LINE
8
BLACK
6
CONTINUOUS
10
151.994
20
-78.4854
11
151.629
21
-78.4211
0
LINE
8
BLACK
6
CONTINUOUS
10
151.629
20
-78.4211
11
151.308
21
-78.236
0
LINE
8
BLACK
6
CONTINUOUS
10
151.308
20
-78.236
11
151.07
21
-77.9523
0
LINE
8
BLACK
6
CONTINUOUS
10
151.07
20
-77.9523
11
150.944
21
-77.6043
0
LINE
8
BLACK
6
CONTINUOUS
10
150.944
20
-77.6043
11
150.944
21
-77.2341
0
LINE
8
BLACK
6
CONTINUOUS
10
150.944
20
-77.2341
11
151.07
21
-76.8861
0
LINE
8
BLACK
6
CONTINUOUS
10
151.07
20
-76.8861
11
151.308
21
-76.6024
0
LINE
8
BLACK
6
CONTINUOUS
10
151.308
20
-76.6024
11
151.629
21
-76.4173
0
LINE
8
BLACK
6
CONTINUOUS
10
151.629
20
-76.4173
11
151.994
21
-76.353
0
LINE
8
BLACK
6
CONTINUOUS
10
151.994
20
-76.353
11
152.358
21
-76.4173
0
LINE
8
BLACK
6
CONTINUOUS
10
169.05
20
-76.4173
11
169.371
21
-76.6024
0
LINE
8
BLACK
6
CONTINUOUS
10
169.371
20
-76.6024
11
169.609
21
-76.8861
0
LINE
8
BLACK
6
CONTINUOUS
10
169.609
20
-76.8861
11
169.736
21
-77.2341
0
LINE
8
BLACK
6
CONTINUOUS
10
169.736
20
-77.2341
11
169.736
21
-77.6043
0
LINE
8
BLACK
6
CONTINUOUS
10
169.736
20
-77.6043
11
169.609
21
-77.9523
0
LINE
8
BLACK
6
CONTINUOUS
10
169.609
20
-77.9523
11
169.371
21
-78.236
0
LINE
8
BLACK
6
CONTINUOUS
10
169.371
20
-78.236
11
169.05
21
-78.4211
0
LINE
8
BLACK
6
CONTINUOUS
10
169.05
20
-78.4211
11
168.686
21
-78.4854
0
LINE
8
BLACK
6
CONTINUOUS
10
168.686
20
-78.4854
11
168.321
21
-78.4211
0
LINE
8
BLACK
6
CONTINUOUS
10
168.321
20
-78.4211
11
168
21
-78.236
0
LINE
8
BLACK
6
CONTINUOUS
10
168
20
-78.236
11
167.762
21
-77.9523
0
LINE
8
BLACK
6
CONTINUOUS
10
167.762
20
-77.9523
11
167.636
21
-77.6043
0
LINE
8
BLACK
6
CONTINUOUS
10
167.636
20
-77.6043
11
167.636
21
-77.2341
0
LINE
8
BLACK
6
CONTINUOUS
10
167.636
20
-77.2341
11
167.762
21
-76.8861
0
LINE
8
BLACK
6
CONTINUOUS
10
167.762
20
-76.8861
11
168
21
-76.6024
0
LINE
8
BLACK
6
CONTINUOUS
10
168
20
-76.6024
11
168.321
21
-76.4173
0
LINE
8
BLACK
6
CONTINUOUS
10
168.321
20
-76.4173
11
168.686
21
-76.353
0
LINE
8
BLACK
6
CONTINUOUS
10
168.686
20
-76.353
11
169.05
21
-76.4173
0
LINE
8
BLACK
6
CONTINUOUS
10
145.129
20
-75.2551
11
145.48
21
-75.4579
0
LINE
8
BLACK
6
CONTINUOUS
10
145.48
20
-75.4579
11
145.74
21
-75.7685
0
LINE
8
BLACK
6
CONTINUOUS
10
145.74
20
-75.7685
11
145.879
21
-76.1496
0
LINE
8
BLACK
6
CONTINUOUS
10
145.879
20
-76.1496
11
145.879
21
-76.5552
0
LINE
8
BLACK
6
CONTINUOUS
10
145.879
20
-76.5552
11
145.74
21
-76.9363
0
LINE
8
BLACK
6
CONTINUOUS
10
145.74
20
-76.9363
11
145.48
21
-77.2469
0
LINE
8
BLACK
6
CONTINUOUS
10
145.48
20
-77.2469
11
145.129
21
-77.4497
0
LINE
8
BLACK
6
CONTINUOUS
10
145.129
20
-77.4497
11
144.729
21
-77.5201
0
LINE
8
BLACK
6
CONTINUOUS
10
144.729
20
-77.5201
11
144.33
21
-77.4497
0
LINE
8
BLACK
6
CONTINUOUS
10
144.33
20
-77.4497
11
143.979
21
-77.2469
0
LINE
8
BLACK
6
CONTINUOUS
10
143.979
20
-77.2469
11
143.718
21
-76.9363
0
LINE
8
BLACK
6
CONTINUOUS
10
143.718
20
-76.9363
11
143.579
21
-76.5552
0
LINE
8
BLACK
6
CONTINUOUS
10
143.579
20
-76.5552
11
143.579
21
-76.1496
0
LINE
8
BLACK
6
CONTINUOUS
10
143.579
20
-76.1496
11
143.718
21
-75.7685
0
LINE
8
BLACK
6
CONTINUOUS
10
143.718
20
-75.7685
11
143.979
21
-75.4579
0
LINE
8
BLACK
6
CONTINUOUS
10
143.979
20
-75.4579
11
144.33
21
-75.2551
0
LINE
8
BLACK
6
CONTINUOUS
10
144.33
20
-75.2551
11
144.729
21
-75.1847
0
LINE
8
BLACK
6
CONTINUOUS
10
144.729
20
-75.1847
11
145.129
21
-75.2551
0
LINE
8
BLACK
6
CONTINUOUS
10
130.639
20
-77.5024
11
128.339
21
-77.5024
0
LINE
8
BLACK
6
CONTINUOUS
10
128.339
20
-77.5024
11
128.339
21
-75.2024
0
LINE
8
BLACK
6
CONTINUOUS
10
128.339
20
-75.2024
11
130.639
21
-75.2024
0
LINE
8
BLACK
6
CONTINUOUS
10
130.639
20
-75.2024
11
130.639
21
-77.5024
0
LINE
8
BLACK
6
CONTINUOUS
10
135.467
20
-75.7994
11
135.569
21
-75.858
0
LINE
8
BLACK
6
CONTINUOUS
10
135.569
20
-75.858
11
135.644
21
-75.9477
0
LINE
8
BLACK
6
CONTINUOUS
10
135.644
20
-75.9477
11
135.689
21
-76.1165
0
LINE
8
BLACK
6
CONTINUOUS
10
135.689
20
-76.1165
11
135.689
21
-76.7915
0
LINE
8
BLACK
6
CONTINUOUS
10
135.689
20
-76.7915
11
135.669
21
-76.9069
0
LINE
8
BLACK
6
CONTINUOUS
10
135.669
20
-76.9069
11
135.61
21
-77.0084
0
LINE
8
BLACK
6
CONTINUOUS
10
135.61
20
-77.0084
11
135.52
21
-77.0838
0
LINE
8
BLACK
6
CONTINUOUS
10
135.52
20
-77.0838
11
135.352
21
-77.129
0
LINE
8
BLACK
6
CONTINUOUS
10
135.352
20
-77.129
11
134.577
21
-77.129
0
LINE
8
BLACK
6
CONTINUOUS
10
134.577
20
-77.129
11
134.461
21
-77.1086
0
LINE
8
BLACK
6
CONTINUOUS
10
134.461
20
-77.1086
11
134.36
21
-77.05
0
LINE
8
BLACK
6
CONTINUOUS
10
134.36
20
-77.05
11
134.284
21
-76.9603
0
LINE
8
BLACK
6
CONTINUOUS
10
134.284
20
-76.9603
11
134.239
21
-76.7915
0
LINE
8
BLACK
6
CONTINUOUS
10
134.239
20
-76.7915
11
134.239
21
-76.1165
0
LINE
8
BLACK
6
CONTINUOUS
10
134.239
20
-76.1165
11
134.26
21
-76.0011
0
LINE
8
BLACK
6
CONTINUOUS
10
134.26
20
-76.0011
11
134.318
21
-75.8996
0
LINE
8
BLACK
6
CONTINUOUS
10
134.318
20
-75.8996
11
134.408
21
-75.8242
0
LINE
8
BLACK
6
CONTINUOUS
10
134.408
20
-75.8242
11
134.577
21
-75.779
0
LINE
8
BLACK
6
CONTINUOUS
10
134.577
20
-75.779
11
135.352
21
-75.779
0
LINE
8
BLACK
6
CONTINUOUS
10
135.352
20
-75.779
11
135.467
21
-75.7994
0
LINE
8
BLACK
6
CONTINUOUS
10
137.217
20
-75.7994
11
137.319
21
-75.858
0
LINE
8
BLACK
6
CONTINUOUS
10
137.319
20
-75.858
11
137.394
21
-75.9477
0
LINE
8
BLACK
6
CONTINUOUS
10
137.394
20
-75.9477
11
137.439
21
-76.1165
0
LINE
8
BLACK
6
CONTINUOUS
10
137.439
20
-76.1165
11
137.439
21
-76.7915
0
LINE
8
BLACK
6
CONTINUOUS
10
137.439
20
-76.7915
11
137.419
21
-76.9069
0
LINE
8
BLACK
6
CONTINUOUS
10
137.419
20
-76.9069
11
137.36
21
-77.0084
0
LINE
8
BLACK
6
CONTINUOUS
10
137.36
20
-77.0084
11
137.27
21
-77.0838
0
LINE
8
BLACK
6
CONTINUOUS
10
137.27
20
-77.0838
11
137.102
21
-77.129
0
LINE
8
BLACK
6
CONTINUOUS
10
137.102
20
-77.129
11
136.327
21
-77.129
0
LINE
8
BLACK
6
CONTINUOUS
10
136.327
20
-77.129
11
136.211
21
-77.1086
0
LINE
8
BLACK
6
CONTINUOUS
10
136.211
20
-77.1086
11
136.11
21
-77.05
0
LINE
8
BLACK
6
CONTINUOUS
10
136.11
20
-77.05
11
136.034
21
-76.9603
0
LINE
8
BLACK
6
CONTINUOUS
10
136.034
20
-76.9603
11
135.989
21
-76.7915
0
LINE
8
BLACK
6
CONTINUOUS
10
135.989
20
-76.7915
11
135.989
21
-76.1165
0
LINE
8
BLACK
6
CONTINUOUS
10
135.989
20
-76.1165
11
136.01
21
-76.0011
0
LINE
8
BLACK
6
CONTINUOUS
10
136.01
20
-76.0011
11
136.068
21
-75.8996
0
LINE
8
BLACK
6
CONTINUOUS
10
136.068
20
-75.8996
11
136.158
21
-75.8242
0
LINE
8
BLACK
6
CONTINUOUS
10
136.158
20
-75.8242
11
136.327
21
-75.779
0
LINE
8
BLACK
6
CONTINUOUS
10
136.327
20
-75.779
11
137.102
21
-75.779
0
LINE
8
BLACK
6
CONTINUOUS
10
137.102
20
-75.779
11
137.217
21
-75.7994
0
LINE
8
BLACK
6
CONTINUOUS
10
171.717
20
-73.5861
11
172.21
21
-73.6682
0
LINE
8
BLACK
6
CONTINUOUS
10
172.21
20
-73.6682
11
172.222
21
-73.6714
0
LINE
8
BLACK
6
CONTINUOUS
10
172.222
20
-73.6714
11
172.228
21
-73.6742
0
LINE
8
BLACK
6
CONTINUOUS
10
172.228
20
-73.6742
11
172.233
21
-73.6762
0
LINE
8
BLACK
6
CONTINUOUS
10
172.233
20
-73.6762
11
172.674
21
-73.9138
0
LINE
8
BLACK
6
CONTINUOUS
10
172.674
20
-73.9138
11
172.685
21
-73.9209
0
LINE
8
BLACK
6
CONTINUOUS
10
172.685
20
-73.9209
11
172.688
21
-73.9253
0
LINE
8
BLACK
6
CONTINUOUS
10
172.688
20
-73.9253
11
172.693
21
-73.9289
0
LINE
8
BLACK
6
CONTINUOUS
10
172.693
20
-73.9289
11
173.033
21
-74.2964
0
LINE
8
BLACK
6
CONTINUOUS
10
173.033
20
-74.2964
11
173.041
21
-74.3066
0
LINE
8
BLACK
6
CONTINUOUS
10
173.041
20
-74.3066
11
173.043
21
-74.312
0
LINE
8
BLACK
6
CONTINUOUS
10
173.043
20
-74.312
11
173.046
21
-74.317
0
LINE
8
BLACK
6
CONTINUOUS
10
173.046
20
-74.317
11
173.249
21
-74.7747
0
LINE
8
BLACK
6
CONTINUOUS
10
173.249
20
-74.7747
11
173.253
21
-74.7869
0
LINE
8
BLACK
6
CONTINUOUS
10
173.253
20
-74.7869
11
173.253
21
-74.7913
0
LINE
8
BLACK
6
CONTINUOUS
10
173.253
20
-74.7913
11
173.255
21
-74.7956
0
LINE
8
BLACK
6
CONTINUOUS
10
173.255
20
-74.7956
11
173.302
21
-75.1728
0
LINE
8
BLACK
6
CONTINUOUS
10
173.302
20
-75.1728
11
173.303
21
-75.1774
0
LINE
8
BLACK
6
CONTINUOUS
10
173.303
20
-75.1774
11
173.303
21
-105.823
0
LINE
8
BLACK
6
CONTINUOUS
10
173.303
20
-105.823
11
173.302
21
-105.829
0
LINE
8
BLACK
6
CONTINUOUS
10
173.302
20
-105.829
11
173.22
21
-106.322
0
LINE
8
BLACK
6
CONTINUOUS
10
173.22
20
-106.322
11
173.217
21
-106.335
0
LINE
8
BLACK
6
CONTINUOUS
10
173.217
20
-106.335
11
173.214
21
-106.34
0
LINE
8
BLACK
6
CONTINUOUS
10
173.214
20
-106.34
11
173.212
21
-106.346
0
LINE
8
BLACK
6
CONTINUOUS
10
173.212
20
-106.346
11
172.974
21
-106.786
0
LINE
8
BLACK
6
CONTINUOUS
10
172.974
20
-106.786
11
172.967
21
-106.797
0
LINE
8
BLACK
6
CONTINUOUS
10
172.967
20
-106.797
11
172.963
21
-106.801
0
LINE
8
BLACK
6
CONTINUOUS
10
172.963
20
-106.801
11
172.959
21
-106.806
0
LINE
8
BLACK
6
CONTINUOUS
10
172.959
20
-106.806
11
172.592
21
-107.145
0
LINE
8
BLACK
6
CONTINUOUS
10
172.592
20
-107.145
11
172.581
21
-107.153
0
LINE
8
BLACK
6
CONTINUOUS
10
172.581
20
-107.153
11
172.576
21
-107.156
0
LINE
8
BLACK
6
CONTINUOUS
10
172.576
20
-107.156
11
172.571
21
-107.159
0
LINE
8
BLACK
6
CONTINUOUS
10
172.571
20
-107.159
11
172.113
21
-107.361
0
LINE
8
BLACK
6
CONTINUOUS
10
172.113
20
-107.361
11
172.101
21
-107.365
0
LINE
8
BLACK
6
CONTINUOUS
10
172.101
20
-107.365
11
172.097
21
-107.366
0
LINE
8
BLACK
6
CONTINUOUS
10
172.097
20
-107.366
11
172.092
21
-107.367
0
LINE
8
BLACK
6
CONTINUOUS
10
172.092
20
-107.367
11
171.715
21
-107.415
0
LINE
8
BLACK
6
CONTINUOUS
10
171.715
20
-107.415
11
171.711
21
-107.415
0
LINE
8
BLACK
6
CONTINUOUS
10
171.711
20
-107.415
11
104.438
21
-107.415
0
LINE
8
BLACK
6
CONTINUOUS
10
104.438
20
-107.415
11
104.432
21
-107.414
0
LINE
8
BLACK
6
CONTINUOUS
10
104.432
20
-107.414
11
103.939
21
-107.332
0
LINE
8
BLACK
6
CONTINUOUS
10
103.939
20
-107.332
11
103.926
21
-107.329
0
LINE
8
BLACK
6
CONTINUOUS
10
103.926
20
-107.329
11
103.921
21
-107.326
0
LINE
8
BLACK
6
CONTINUOUS
10
103.921
20
-107.326
11
103.916
21
-107.324
0
LINE
8
BLACK
6
CONTINUOUS
10
103.916
20
-107.324
11
103.475
21
-107.087
0
LINE
8
BLACK
6
CONTINUOUS
10
103.475
20
-107.087
11
103.464
21
-107.079
0
LINE
8
BLACK
6
CONTINUOUS
10
103.464
20
-107.079
11
103.46
21
-107.075
0
LINE
8
BLACK
6
CONTINUOUS
10
103.46
20
-107.075
11
103.456
21
-107.072
0
LINE
8
BLACK
6
CONTINUOUS
10
103.456
20
-107.072
11
103.116
21
-106.704
0
LINE
8
BLACK
6
CONTINUOUS
10
103.116
20
-106.704
11
103.108
21
-106.694
0
LINE
8
BLACK
6
CONTINUOUS
10
103.108
20
-106.694
11
103.106
21
-106.688
0
LINE
8
BLACK
6
CONTINUOUS
10
103.106
20
-106.688
11
103.102
21
-106.683
0
LINE
8
BLACK
6
CONTINUOUS
10
103.102
20
-106.683
11
102.9
21
-106.226
0
LINE
8
BLACK
6
CONTINUOUS
10
102.9
20
-106.226
11
102.896
21
-106.213
0
LINE
8
BLACK
6
CONTINUOUS
10
102.896
20
-106.213
11
102.896
21
-106.209
0
LINE
8
BLACK
6
CONTINUOUS
10
102.896
20
-106.209
11
102.894
21
-106.205
0
LINE
8
BLACK
6
CONTINUOUS
10
102.894
20
-106.205
11
102.847
21
-105.828
0
LINE
8
BLACK
6
CONTINUOUS
10
102.847
20
-105.828
11
102.846
21
-105.823
0
LINE
8
BLACK
6
CONTINUOUS
10
102.846
20
-105.823
11
102.846
21
-75.1774
0
LINE
8
BLACK
6
CONTINUOUS
10
102.846
20
-75.1774
11
102.847
21
-75.1714
0
LINE
8
BLACK
6
CONTINUOUS
10
102.847
20
-75.1714
11
102.929
21
-74.678
0
LINE
8
BLACK
6
CONTINUOUS
10
102.929
20
-74.678
11
102.932
21
-74.6655
0
LINE
8
BLACK
6
CONTINUOUS
10
102.932
20
-74.6655
11
102.935
21
-74.6603
0
LINE
8
BLACK
6
CONTINUOUS
10
102.935
20
-74.6603
11
102.937
21
-74.6547
0
LINE
8
BLACK
6
CONTINUOUS
10
102.937
20
-74.6547
11
103.175
21
-74.2143
0
LINE
8
BLACK
6
CONTINUOUS
10
103.175
20
-74.2143
11
103.182
21
-74.2035
0
LINE
8
BLACK
6
CONTINUOUS
10
103.182
20
-74.2035
11
103.186
21
-74.1995
0
LINE
8
BLACK
6
CONTINUOUS
10
103.186
20
-74.1995
11
103.19
21
-74.1949
0
LINE
8
BLACK
6
CONTINUOUS
10
103.19
20
-74.1949
11
103.557
21
-73.8552
0
LINE
8
BLACK
6
CONTINUOUS
10
103.557
20
-73.8552
11
103.567
21
-73.8472
0
LINE
8
BLACK
6
CONTINUOUS
10
103.567
20
-73.8472
11
103.573
21
-73.8449
0
LINE
8
BLACK
6
CONTINUOUS
10
103.573
20
-73.8449
11
103.578
21
-73.8416
0
LINE
8
BLACK
6
CONTINUOUS
10
103.578
20
-73.8416
11
104.035
21
-73.6393
0
LINE
8
BLACK
6
CONTINUOUS
10
104.035
20
-73.6393
11
104.048
21
-73.6351
0
LINE
8
BLACK
6
CONTINUOUS
10
104.048
20
-73.6351
11
104.052
21
-73.6347
0
LINE
8
BLACK
6
CONTINUOUS
10
104.052
20
-73.6347
11
104.056
21
-73.6335
0
LINE
8
BLACK
6
CONTINUOUS
10
104.056
20
-73.6335
11
104.434
21
-73.5858
0
LINE
8
BLACK
6
CONTINUOUS
10
104.434
20
-73.5858
11
104.438
21
-73.585
0
LINE
8
BLACK
6
CONTINUOUS
10
104.438
20
-73.585
11
171.711
21
-73.585
0
LINE
8
BLACK
6
CONTINUOUS
10
171.711
20
-73.585
11
171.717
21
-73.5861
0
LINE
8
BLACK
6
CONTINUOUS
10
104.45
20
-73.735
11
104.086
21
-73.7809
0
LINE
8
BLACK
6
CONTINUOUS
10
104.086
20
-73.7809
11
103.65
21
-73.9738
0
LINE
8
BLACK
6
CONTINUOUS
10
103.65
20
-73.9738
11
103.301
21
-74.2965
0
LINE
8
BLACK
6
CONTINUOUS
10
103.301
20
-74.2965
11
103.075
21
-74.715
0
LINE
8
BLACK
6
CONTINUOUS
10
103.075
20
-74.715
11
102.996
21
-75.1902
0
LINE
8
BLACK
6
CONTINUOUS
10
102.996
20
-75.1902
11
102.996
21
-105.812
0
LINE
8
BLACK
6
CONTINUOUS
10
102.996
20
-105.812
11
103.042
21
-106.175
0
LINE
8
BLACK
6
CONTINUOUS
10
103.042
20
-106.175
11
103.235
21
-106.611
0
LINE
8
BLACK
6
CONTINUOUS
10
103.235
20
-106.611
11
103.557
21
-106.961
0
LINE
8
BLACK
6
CONTINUOUS
10
103.557
20
-106.961
11
103.976
21
-107.186
0
LINE
8
BLACK
6
CONTINUOUS
10
103.976
20
-107.186
11
104.451
21
-107.265
0
LINE
8
BLACK
6
CONTINUOUS
10
104.451
20
-107.265
11
171.699
21
-107.265
0
LINE
8
BLACK
6
CONTINUOUS
10
171.699
20
-107.265
11
172.063
21
-107.219
0
LINE
8
BLACK
6
CONTINUOUS
10
172.063
20
-107.219
11
172.499
21
-107.027
0
LINE
8
BLACK
6
CONTINUOUS
10
172.499
20
-107.027
11
172.848
21
-106.704
0
LINE
8
BLACK
6
CONTINUOUS
10
172.848
20
-106.704
11
173.074
21
-106.285
0
LINE
8
BLACK
6
CONTINUOUS
10
173.074
20
-106.285
11
173.153
21
-105.81
0
LINE
8
BLACK
6
CONTINUOUS
10
173.153
20
-105.81
11
173.153
21
-75.1887
0
LINE
8
BLACK
6
CONTINUOUS
10
173.153
20
-75.1887
11
173.107
21
-74.8253
0
LINE
8
BLACK
6
CONTINUOUS
10
173.107
20
-74.8253
11
172.914
21
-74.389
0
LINE
8
BLACK
6
CONTINUOUS
10
172.914
20
-74.389
11
172.591
21
-74.0399
0
LINE
8
BLACK
6
CONTINUOUS
10
172.591
20
-74.0399
11
172.173
21
-73.8141
0
LINE
8
BLACK
6
CONTINUOUS
10
172.173
20
-73.8141
11
171.698
21
-73.735
0
LINE
8
BLACK
6
CONTINUOUS
10
171.698
20
-73.735
11
104.45
21
-73.735
  0
ENDSEC
  0
EOF
